<svg xmlns="http://www.w3.org/2000/svg" viewBox="0 0 392 106.54"><defs><style>.cls-1{fill:#644172;}</style></defs><title>logo-crece</title><g id="Capa_2" data-name="Capa 2"><g id="Capa_1-2" data-name="Capa 1"><path class="cls-1" d="M185,43.8a21.48,21.48,0,0,0-14.69-6.06c-10.54,0-17.56,8.09-17.56,18.62s7.66,18.85,18,18.85c7.13,0,12.13-4,14.48-6.18l3.3,9.58a28,28,0,0,1-18.42,6.92C153.16,85.53,141,73.08,141,56.36S153.48,27.2,170,27.2A28,28,0,0,1,188.51,34Z"/><path class="cls-1" d="M224.21,38.91c-12.13,0-15.64,9.26-15.64,21.29v24H197V28.58h11.39v8.73c2.13-5.54,8-10.11,15.86-10.11Z"/><path class="cls-1" d="M254.18,27.2c16.82,0,26.72,11.6,26.72,29.06a25.12,25.12,0,0,1-.11,2.87H239c.22,9.9,7.35,16.29,17.25,16.29a18.15,18.15,0,0,0,15.33-7.77l7.66,5.75c-2.66,4.57-10,12.13-23.2,12.13-17.36,0-28.85-12.13-28.85-28.95C227.14,39.33,239,27.2,254.18,27.2Zm14.9,24c-.43-9.16-6.81-14.27-14.8-14.27s-14.15,5.54-14.9,14.27Z"/><path class="cls-1" d="M330.57,43.8a21.48,21.48,0,0,0-14.69-6.06c-10.54,0-17.56,8.09-17.56,18.62s7.66,18.85,18,18.85c7.13,0,12.13-4,14.48-6.18l3.3,9.58a28,28,0,0,1-18.42,6.92c-16.93,0-29.06-12.45-29.06-29.17S299.06,27.2,315.56,27.2A28,28,0,0,1,334.09,34Z"/><path class="cls-1" d="M365.28,27.2C382.1,27.2,392,38.8,392,56.26a25.12,25.12,0,0,1-.11,2.87H350.06c.21,9.9,7.34,16.29,17.24,16.29a18.15,18.15,0,0,0,15.33-7.77l7.67,5.75c-2.66,4.57-10,12.13-23.21,12.13-17.35,0-28.85-12.13-28.85-28.95C338.24,39.33,350.06,27.2,365.28,27.2Zm14.9,24c-.42-9.16-6.81-14.27-14.79-14.27s-14.16,5.54-14.91,14.27Z"/><path class="cls-1" d="M10,33c14.77,1.86,21,7.71,22.39,11.5.93,4,1,21.86.5,37.76C26,77.16,17,74.12,10,72.37V33m74.29.1V71.63c-6.76,1.6-15.63,4.87-23,11.54-.4-16.43-.2-34.93.85-39.37.19-.78,2-3.62,7.52-6.4a48.49,48.49,0,0,1,14.63-4.29m10-10.73c-24.05,0-39.74,9.74-42,19.1-2.08,8.8-1,44.85-1,44.85s.2,5-4.17,5-4.36-4.89-4.36-4.89S44.24,48,42,41.37c-3.28-9.5-16.16-19-42-19V77.19a4,4,0,0,0,3.23,3.94c6.35,1.27,20.44,4.81,27.23,12.32,8.3,9.16,6.67,13.09,16.73,13.09,8.82,0,9.33-2.64,18-12.93C73,84.34,85.1,81.44,91,80.56a4,4,0,0,0,3.4-4V22.38Z"/><circle class="cls-1" cx="47.2" cy="11.54" r="11.54"/></g></g></svg>