<svg xmlns="http://www.w3.org/2000/svg" viewBox="0 0 1897.33 409.24"><defs><style>.cls-1{fill:#fff;}</style></defs><title>logo-audisis-white</title><g id="Capa_2" data-name="Capa 2"><g id="Capa_1-2" data-name="Capa 1"><path class="cls-1" d="M614.6,185.1c28.48,0,49.84,9.5,59.33,18V179.88c0-28.48-19.94-45.56-52.68-45.56-27.53,0-51.26,9.49-69.3,19.46L532,117.71c19.93-12.82,53.16-28.48,94.45-28.48,73.57,0,98.72,39.87,98.72,94V343.15H680.1l-4.27-18.51c-12.82,14.24-32.75,24.69-63.6,24.69-52.21,0-93.5-32.75-93.5-82.59C518.73,218.81,557.65,185.1,614.6,185.1ZM623.15,308c30.37,0,52.2-17.09,52.2-42.71,0-26.11-21.36-42.72-52.68-42.72s-52.21,18-52.21,42.72S591.82,308,623.15,308Z"/><path class="cls-1" d="M774.86,244.43V95.4h51.26V248.71c0,34.17,21.36,54.1,49.83,54.1,32.75,0,54.11-23.73,54.11-57.9V95.4H981.8V343.15H931V310.88c-10.91,19.94-36.54,38.45-69.77,38.45C797.17,349.33,774.86,298.54,774.86,244.43Z"/><path class="cls-1" d="M1271.67,343.15h-48.89V310.88c-6.64,8.54-31.79,38.45-79.73,38.45-70.72,0-121-53.63-121-129.58,0-76.41,47-130.52,117.71-130.52,47,0,73.57,28.48,80.22,39.39V0h51.73ZM1147.79,135.27c-43.19,0-73.56,35.12-73.56,85,0,50.78,31.79,83.53,74,83.53,45.56,0,73.56-38,73.56-83.53C1221.83,166.12,1189.09,135.27,1147.79,135.27Z"/><path class="cls-1" d="M1352.37,1.9a32,32,0,0,1,32.28,32.27,32.28,32.28,0,1,1-64.55,0A32,32,0,0,1,1352.37,1.9Zm-25.62,93.5h51.73V343.15h-51.73Z"/><path class="cls-1" d="M1446.53,274.34c11.38,16.6,28.47,32.27,59.32,32.27,21.83,0,38-10.91,38-30.85,0-47.47-120.55-30.38-120.55-116.28,0-43.67,37-70.25,85-70.25,46.52,0,71.2,27.05,80.69,46L1553.32,159c-7.12-11.39-20.42-27.53-47.94-27.53-19,0-33.23,10-33.23,27.05,0,47.47,121,27.53,121,114.86,0,46-38.92,75.95-89.7,75.95-50.31,0-76.89-27.06-89.23-49.37Z"/><path class="cls-1" d="M1656.53,1.9a32,32,0,0,1,32.27,32.27,32.27,32.27,0,1,1-64.54,0A32,32,0,0,1,1656.53,1.9ZM1630.9,95.4h51.73V343.15H1630.9Z"/><path class="cls-1" d="M1750.68,274.34c11.39,16.6,28.48,32.27,59.32,32.27,21.84,0,38-10.91,38-30.85,0-47.47-120.55-30.38-120.55-116.28,0-43.67,37-70.25,85-70.25,46.51,0,71.19,27.05,80.69,46L1857.47,159c-7.12-11.39-20.41-27.53-47.94-27.53-19,0-33.22,10-33.22,27.05,0,47.47,121,27.53,121,114.86,0,46-38.91,75.95-89.7,75.95-50.31,0-76.89-27.06-89.23-49.37Z"/><path class="cls-1" d="M330.63,169.67,171,32.44C107.9-21.89,2.14,26.17,1.56,109.45L0,314c-.59,72,76.85,116.66,147,84.77l.68-.31.4-.18c2.85-1.3,22.16-10.73,28.53-30.9,7-21.8,30.41-32,30.41-32a56.79,56.79,0,0,1,43.87-2.11c21.21,7.53,37.75,1.11,41.58-.63l.88-.4,5.71-2.59C366.52,299,383.16,214.81,330.63,169.67Zm-60.2,113.1-.3.14c-5.7,2.59-23.71,9.13-41,1-21.22-10.16-43.76.52-43.76.52s-23.65,8.24-30.92,31.66c-6.61,21.71-26.22,31.28-29,32.53l-.29.13-.1,0c-33.71,15.32-71-6.14-70.68-40.72l1.5-189.56c.27-42.45,54.14-66.93,86.3-39.22L286,202.88C312.15,225.32,303.86,267.36,270.43,282.77Z"/><circle class="cls-1" cx="148.36" cy="198.36" r="39.52"/></g></g></svg>