<svg xmlns="http://www.w3.org/2000/svg" viewBox="0 0 4176.3 581.03"><defs><style>.cls-1{fill:#0059a6;}</style></defs><title>logo-progestion</title><g id="Capa_2" data-name="Capa 2"><g id="Capa_1-2" data-name="Capa 1"><path class="cls-1" d="M1208,128h65.35v43.78c8.88-12.06,42.51-52,106.6-52,94.54,0,161.8,72.33,161.8,173.22,0,102.79-62.82,174.49-157.36,174.49-62.82,0-98.35-38.08-107.23-52V577.86H1208Zm165.6,277.91c57.75,0,98.35-46.32,98.35-112.94,0-67.89-42.51-111.68-99-111.68-60.92,0-98.35,50.76-98.35,111.68C1274.62,364.67,1318.4,405.91,1373.6,405.91Z"/><path class="cls-1" d="M1758.58,189.54c-72.33,0-93.27,55.21-93.27,126.91V459.21h-69.16V128H1664v52c12.69-33,47.58-60.28,94.54-60.28Z"/><path class="cls-1" d="M1949.73,119.75c102.15,0,175.75,74.24,175.75,173.85s-74.86,173.86-175.75,173.86c-101.52,0-175.13-73-175.13-173.22S1850.12,119.75,1949.73,119.75Zm0,286.16c61.55,0,106.59-47.59,106.59-112.31s-45-112.31-106.59-112.31c-62.18,0-105.33,48.23-105.33,113C1844.4,359.59,1888.19,405.91,1949.73,405.91Z"/><path class="cls-1" d="M2223.93,496c12.05,7,50.75,25.38,97.07,25.38,55.21,0,104.07-20.31,104.07-83.12V416.06c-7.62,10.79-40.61,51.4-106,51.4-95.17,0-158.63-71.7-158.63-173.22,0-102.16,66-174.49,159.9-174.49,62.18,0,97.71,37.43,107.86,52.66V128h65.36V415.42c0,124.37-75.51,165.61-172,165.61-44.42,0-90.73-14.59-119.92-31.72ZM2328,181.29c-57.1,0-98.35,45.69-98.35,112.31,0,67.9,42.52,112.31,99,112.31,59.64,0,98.35-47,98.35-112.31C2427,225.71,2385.09,181.29,2328,181.29Z"/><path class="cls-1" d="M2707.7,119.75C2808,119.75,2867,188.91,2867,293a153.27,153.27,0,0,1-.64,17.13H2617c1.26,59,43.77,97.08,102.79,97.08,50.12,0,78.67-27.92,91.36-46.32l45.68,34.26c-15.86,27.28-59.64,72.34-138.32,72.34-103.42,0-171.95-72.34-171.95-172.59C2546.53,192.08,2617,119.75,2707.7,119.75Zm88.82,142.76c-2.54-54.57-40.61-85-88.19-85s-84.39,33-88.83,85Z"/><path class="cls-1" d="M2935.45,367.21c15.23,22.2,38.07,43.14,79.31,43.14,29.19,0,50.76-14.59,50.76-41.24,0-63.45-161.16-40.61-161.16-155.45,0-58.38,49.49-93.91,113.58-93.91,62.18,0,95.17,36.17,107.86,61.54L3078.22,213c-9.52-15.23-27.29-36.8-64.09-36.8-25.38,0-44.42,13.32-44.42,36.16,0,63.46,161.8,36.81,161.8,153.56,0,61.54-52,101.52-119.92,101.52-67.25,0-102.79-36.17-119.28-66Z"/><path class="cls-1" d="M3191.76,58.84h68.53V128h67.26v57.1h-67.26V339.29c0,51.39,19.67,62.81,56.47,62.81,5.72,0,13.33-.63,13.33-.63v59.64s-12.05,2.54-33.63,2.54c-80.59,0-104.7-53.93-104.7-135.15V185.1H3155V128h36.79Z"/><path class="cls-1" d="M3410.07,3a42.79,42.79,0,0,1,43.15,43.15,43.15,43.15,0,0,1-86.29,0A42.79,42.79,0,0,1,3410.07,3Zm-34.26,125H3445V459.21h-69.16Z"/><path class="cls-1" d="M3671,119.75c102.16,0,175.76,74.24,175.76,173.85S3771.85,467.46,3671,467.46c-101.52,0-175.12-73-175.12-173.22S3571.35,119.75,3671,119.75Zm0,286.16c61.55,0,106.6-47.59,106.6-112.31s-45-112.31-106.6-112.31c-62.18,0-105.32,48.23-105.32,113C3565.64,359.59,3609.42,405.91,3671,405.91Z"/><path class="cls-1" d="M4176.3,260V459.21h-68.52V254.27c0-45.69-28.56-72.34-66.63-72.34-43.78,0-72.33,32.36-72.33,77.41V459.21h-69.16V128h67.88v43.15c14.6-26,48.86-51.4,93.28-51.4C4146.47,119.75,4176.3,187.64,4176.3,260Z"/><circle class="cls-1" cx="870" cy="64" r="64"/><path class="cls-1" d="M49.8,554A159.56,159.56,0,0,1,0,438H0A160,160,0,0,1,160,278H512a64,64,0,0,0,64-64h0a64,64,0,0,0-64-64H190L270,22H512.63C618.32,22,704,107.68,704,213.38v.87C704,320.15,618.15,406,512.25,406H160a32,32,0,0,0-27.11,15"/></g></g></svg>