<?xml version="1.0" encoding="iso-8859-1"?>
<!-- Generator: Adobe Illustrator 19.0.0, SVG Export Plug-In . SVG Version: 6.00 Build 0)  -->
<svg version="1.1" id="Capa_1" xmlns="http://www.w3.org/2000/svg" xmlns:xlink="http://www.w3.org/1999/xlink" x="0px" y="0px"
	 viewBox="0 0 480.002 480.002" style="enable-background:new 0 0 480.002 480.002;" xml:space="preserve">
<g>
	<g>
		<path d="M111.633,240.2c5.392-6.917,8.335-15.428,8.368-24.198c0-22.091-17.909-40-40-40s-40,17.909-40,40
			c0.033,8.77,2.976,17.281,8.368,24.198c-27.251,2.057-48.325,24.747-48.368,52.076v75.727c0,4.418,3.582,8,8,8h24v96
			c0,4.418,3.582,8,8,8h80c4.418,0,8-3.582,8-8v-96h24c4.418,0,8-3.582,8-8v-75.727C159.958,264.947,138.884,242.257,111.633,240.2z
			 M80.001,192.002c13.255,0,24,10.745,24,24s-10.745,24-24,24s-24-10.745-24-24C56.015,202.753,66.752,192.017,80.001,192.002z
			 M144.001,360.002h-16v-80h-16v184h-24v-104h-16v104h-24v-184h-16v80h-16v-67.727c0.023-20.024,16.25-36.25,36.273-36.273h55.453
			c20.024,0.023,36.25,16.25,36.273,36.273V360.002z"/>
	</g>
</g>
<g>
	<g>
		<path d="M431.633,240.2c5.392-6.917,8.335-15.428,8.368-24.198c0-22.091-17.909-40-40-40c-22.091,0-40,17.909-40,40
			c0.033,8.77,2.976,17.281,8.368,24.198c-27.251,2.057-48.325,24.747-48.368,52.076v75.727c0,4.418,3.582,8,8,8h24v96
			c0,4.418,3.582,8,8,8h80c4.418,0,8-3.582,8-8v-96h24c4.418,0,8-3.582,8-8v-75.727C479.958,264.947,458.884,242.257,431.633,240.2z
			 M400.001,192.002c13.255,0,24,10.745,24,24s-10.745,24-24,24s-24-10.745-24-24C376.016,202.753,386.752,192.017,400.001,192.002z
			 M464.001,360.002h-16v-80h-16v184h-24v-104h-16v104h-24v-184h-16v80h-16v-67.727c0.023-20.024,16.25-36.25,36.273-36.273h55.453
			c20.024,0.023,36.25,16.25,36.273,36.273V360.002z"/>
	</g>
</g>
<g>
	<g>
		<path d="M328.001,120.002h-32c-4.418,0-8,3.582-8,8v52.758c0.424,3.699-0.003,7.445-1.25,10.953
			c-0.632,0.251-1.315,0.35-1.992,0.289h-12.962c5.291-6.885,8.174-15.317,8.204-24c0-22.091-17.909-40-40-40
			c-22.091,0-40,17.909-40,40c0.03,8.683,2.913,17.115,8.205,24h-12.962c-0.671,0.054-1.346-0.041-1.977-0.277
			c-1.262-3.508-1.696-7.261-1.266-10.965v-52.758c0-4.418-3.582-8-8-8h-32c-4.418,0-8,3.582-8,8v74.031
			c0.023,20.96,17.009,37.946,37.969,37.969h10.031v168h-16c-4.418,0-8,3.582-8,8v56c0,4.418,3.582,8,8,8h128c4.418,0,8-3.582,8-8
			v-56c0-4.418-3.582-8-8-8h-16v-168h10.031c20.96-0.023,37.946-17.009,37.969-37.969v-74.031
			C336.001,123.584,332.419,120.002,328.001,120.002z M240.001,144.002c13.255,0,24,10.745,24,24s-10.745,24-24,24s-24-10.745-24-24
			C216.015,154.753,226.752,144.017,240.001,144.002z M296.001,424.002v40h-112v-40H296.001z M320.001,202.033
			c-0.014,12.127-9.841,21.955-21.969,21.969h-18.031c-4.418,0-8,3.582-8,8v176h-24v-104h-16v104h-24v-176c0-4.418-3.582-8-8-8
			H181.97c-12.127-0.014-21.955-9.841-21.969-21.969v-66.031h16v44.758c0,8.844,0,27.242,19.242,27.242h89.516
			c19.242,0,19.242-18.398,19.242-27.242v-44.758h16V202.033z"/>
	</g>
</g>
<g>
	<g>
		<path d="M295.669,45.725c-1.008-3.394-4.127-5.722-7.668-5.723H257.38l-9.684-34.18c-1.202-4.25-5.622-6.721-9.872-5.518
			c-2.673,0.756-4.762,2.845-5.518,5.518l-9.684,34.18h-30.621c-4.419,0.001-8,3.583-7.999,8.002c0,2.704,1.367,5.225,3.632,6.701
			l24.301,15.836l-11.43,30.668c-1.542,4.141,0.565,8.747,4.705,10.289c2.48,0.924,5.256,0.561,7.416-0.969l27.375-19.386
			l27.375,19.387c3.605,2.554,8.598,1.702,11.152-1.903c1.53-2.16,1.893-4.937,0.969-7.417l-11.43-30.668l24.301-15.836
			C295.335,52.773,296.678,49.119,295.669,45.725z M250.841,70.127l4.598,12.344l-10.812-7.66c-2.771-1.964-6.479-1.964-9.25,0
			l-10.813,7.66l4.598-12.344c1.308-3.508,0.008-7.453-3.129-9.496l-7.102-4.629h9.738c3.579,0.001,6.722-2.376,7.695-5.82
			l3.637-12.828l3.637,12.828c0.973,3.444,4.117,5.821,7.695,5.82h9.738l-7.102,4.629C250.833,62.674,249.533,66.62,250.841,70.127z
			"/>
	</g>
</g>
<g>
	<g>
		<rect x="310.111" y="24.006" transform="matrix(0.8944 -0.4472 0.4472 0.8944 20.3136 150.0635)" width="35.776" height="16"/>
	</g>
</g>
<g>
	<g>
		<rect x="140" y="10.457" transform="matrix(0.3714 -0.9285 0.9285 0.3714 63.3263 157.5282)" width="16" height="43.08"/>
	</g>
</g>
<g>
	<g>
		<rect x="319.998" y="70.116" transform="matrix(0.4472 -0.8944 0.8944 0.4472 102.601 342.0189)" width="16" height="35.776"/>
	</g>
</g>
<g>
	<g>
		<rect x="126.457" y="80.001" transform="matrix(0.9285 -0.3714 0.3714 0.9285 -22.0977 61.2584)" width="43.08" height="16"/>
	</g>
</g>
<g>
</g>
<g>
</g>
<g>
</g>
<g>
</g>
<g>
</g>
<g>
</g>
<g>
</g>
<g>
</g>
<g>
</g>
<g>
</g>
<g>
</g>
<g>
</g>
<g>
</g>
<g>
</g>
<g>
</g>
</svg>
