<svg xmlns="http://www.w3.org/2000/svg" viewBox="0 0 72.92 145.63"><defs><style>.cls-1{fill:#fff;}</style></defs><title>icon-phone</title><g id="Capa_2" data-name="Capa 2"><g id="Capa_2-2" data-name="Capa 2"><path class="cls-1" d="M61.77,0H11.15A11.15,11.15,0,0,0,0,11.15V134.48a11.15,11.15,0,0,0,11.15,11.15H61.77a11.15,11.15,0,0,0,11.15-11.15V11.15A11.15,11.15,0,0,0,61.77,0Zm6.65,134.48a6.65,6.65,0,0,1-6.65,6.65H11.15a6.65,6.65,0,0,1-6.65-6.65V11.15A6.65,6.65,0,0,1,11.15,4.5H21.31l1.48,2a3.17,3.17,0,0,0,2.54,1.27h22A3.19,3.19,0,0,0,49.8,6.59L51.56,4.5H61.77a6.65,6.65,0,0,1,6.65,6.65Z"/><circle class="cls-1" cx="36.34" cy="127.36" r="5.18" transform="translate(-40.11 19.21) rotate(-19.33)"/></g></g></svg>