<svg xmlns="http://www.w3.org/2000/svg" viewBox="0 0 453.54 453.54"><defs><style>.cls-1{fill:#000f9f;}</style></defs><title>icon-linkedin</title><g id="Capa_2" data-name="Capa 2"><g id="Capa_1-2" data-name="Capa 1"><path class="cls-1" d="M396.89,76.81A228,228,0,0,0,365.8,47.6a226.82,226.82,0,0,0-278,0A228.5,228.5,0,0,0,56.66,76.8,225.91,225.91,0,0,0,0,226.77C0,352,101.53,453.54,226.77,453.54S453.54,352,453.54,226.77A225.94,225.94,0,0,0,396.89,76.81Zm-235,264.63a9,9,0,0,1-9,8.95H114.84a9,9,0,0,1-9-8.95V181.59a9,9,0,0,1,9-9H153a9,9,0,0,1,9,9Zm-28-183.88a36.23,36.23,0,1,1,36.23-36.23A36.23,36.23,0,0,1,133.9,157.56Zm227.31,184.6a8.24,8.24,0,0,1-8.23,8.23H312.06a8.24,8.24,0,0,1-8.25-8.23v-75c0-11.19,3.29-49-29.22-49-25.22,0-30.33,25.9-31.37,37.52v86.48a8.23,8.23,0,0,1-8.23,8.23H195.41a8.24,8.24,0,0,1-8.23-8.23V180.86a8.24,8.24,0,0,1,8.23-8.24H235a8.23,8.23,0,0,1,8.23,8.24V194.8c9.36-14,23.26-24.86,52.85-24.86,65.52,0,65.14,61.22,65.14,94.86Z"/></g></g></svg>