<svg xmlns="http://www.w3.org/2000/svg" viewBox="0 0 534 469.56"><defs><style>.cls-1{fill:#fff;}</style></defs><title>icon-satisfaccion</title><g id="Capa_2" data-name="Capa 2"><g id="Capa_2-2" data-name="Capa 2"><path class="cls-1" d="M266.78,469.56h0a8,8,0,0,1-5.7-2.4l-231-235.49a7.45,7.45,0,0,1-1-1.2C8,201.5.37,179.17,0,145.3-.83,67.16,62,2,140.06.05A143.65,143.65,0,0,1,267,69.78,143.65,143.65,0,0,1,394,.05c78.34,2,141.16,67.36,140,145.79h0a142.42,142.42,0,0,1-29.85,85.59,7.1,7.1,0,0,1-.83,1L272.48,467.17A8,8,0,0,1,266.78,469.56ZM42,220.93,266.79,450.14,491.52,221.6a126.56,126.56,0,0,0,26.47-76C519,75.91,463.16,17.78,393.55,16a127,127,0,0,0-116.91,69.3A10.81,10.81,0,0,1,267,91.23h0a10.81,10.81,0,0,1-9.64-5.89A127,127,0,0,0,140.46,16C71.09,17.78,15.26,75.68,16,145.13,16.29,171.54,20.53,191.48,42,220.93Zm484-75.21h0Z"/></g></g></svg>