<svg xmlns="http://www.w3.org/2000/svg" viewBox="0 0 453.54 453.54"><defs><style>.cls-1{fill:#000f9f;}</style></defs><title>icon-instagram</title><g id="Capa_2" data-name="Capa 2"><g id="Capa_1-2" data-name="Capa 1"><path class="cls-1" d="M285.17,104.76H168.37a60,60,0,0,0-59.78,59.78V289a60,60,0,0,0,59.78,59.79h116.8A60,60,0,0,0,345,289V164.54a60,60,0,0,0-59.79-59.78Zm-58,197.82a76.92,76.92,0,1,1,76.92-76.92A76.91,76.91,0,0,1,227.2,302.58Zm78.15-136.82a18.21,18.21,0,1,1,18.21-18.21A18.21,18.21,0,0,1,305.35,165.76Z"/><path class="cls-1" d="M226.77,0C101.53,0,0,101.53,0,226.77S101.53,453.54,226.77,453.54,453.54,352,453.54,226.77,352,0,226.77,0ZM366.43,289a81.5,81.5,0,0,1-81.26,81.26H168.37A81.5,81.5,0,0,1,87.11,289V164.54a81.5,81.5,0,0,1,81.26-81.26h116.8a81.5,81.5,0,0,1,81.26,81.26Z"/><circle class="cls-1" cx="226.83" cy="225.72" r="50.36"/></g></g></svg>