<svg xmlns="http://www.w3.org/2000/svg" viewBox="0 0 258.94 266.45"><defs><style>.cls-1{fill:#000f9f;}</style></defs><title>icon-20-anos</title><g id="Capa_2" data-name="Capa 2"><g id="corte"><path class="cls-1" d="M16.31,97,17.12,94,1,95.59,0,99l13,9.76.8-2.8-2.86-2.06,1.9-6.67Zm-7.44,5.47L5.3,99.82,3.38,98.5l-.6-.39,0-.12a1.58,1.58,0,0,0,.28,0h.39c1,0,1.75,0,2.37-.12l4.41-.36Z"/><path class="cls-1" d="M12.06,82.6l11.06-2.16L24.22,78,10.5,71.66,9.35,74.13l8.18,3.79,1.08.45v.12a4,4,0,0,1-.55.05l-.86.12-11,2.18L5.11,83.27l13.74,6.38L20,87.18l-8.25-3.82c-.26-.12-.5-.21-.69-.31a1.59,1.59,0,0,1-.41-.17l0-.12.58,0A5.4,5.4,0,0,0,12.06,82.6ZM7.15,73.7a3.09,3.09,0,0,0-1.44-1.25l-.65,1.37c.46.26.58.6.41,1a4.11,4.11,0,0,1-1,1.15c-.24.24-.46.46-.63.65a4.37,4.37,0,0,0-.4.65,1.77,1.77,0,0,0,0,1.7A2.91,2.91,0,0,0,4.94,80.2l.62-1.37c-.43-.29-.57-.6-.38-1a2.18,2.18,0,0,1,.36-.55,5.23,5.23,0,0,1,.58-.6c.26-.27.48-.48.64-.68a2.42,2.42,0,0,0,.39-.59A1.88,1.88,0,0,0,7.15,73.7Z"/><path class="cls-1" d="M32.9,61.32c-.33-1.84-1.55-3.5-3.71-5s-4.15-2-6-1.66a7.64,7.64,0,0,0-4.79,3.55A7.68,7.68,0,0,0,16.86,64c.34,1.82,1.58,3.48,3.74,4.94s4.13,2,5.95,1.68a7.63,7.63,0,0,0,4.8-3.55A7.67,7.67,0,0,0,32.9,61.32Zm-3.52,4.42a4.59,4.59,0,0,1-3.07,2.18,5.54,5.54,0,0,1-3.89-1.22L22,66.46a5.59,5.59,0,0,1-2.54-3.22,4.43,4.43,0,0,1,.89-3.64,4.67,4.67,0,0,1,3.06-2.19,5.56,5.56,0,0,1,3.91,1.23l.39.24a5.52,5.52,0,0,1,2.54,3.19A4.46,4.46,0,0,1,29.38,65.74Z"/><path class="cls-1" d="M44,44.68a3.21,3.21,0,0,0-2.26-1,5.09,5.09,0,0,0-2.35.51,24.76,24.76,0,0,0-2.75,1.51c-.75.45-1.35.81-1.8,1.05a3.58,3.58,0,0,1-1.32.43,1.21,1.21,0,0,1-1.06-.33,1.34,1.34,0,0,1-.31-1.47,5.24,5.24,0,0,1,1.3-2,3.84,3.84,0,0,1,1.94-1.27,1.69,1.69,0,0,1,1.68.38l.16.17,1.92-2-.19-.2a3.68,3.68,0,0,0-3.52-1,7.54,7.54,0,0,0-3.72,2.33,7.9,7.9,0,0,0-2.23,3.93A3.43,3.43,0,0,0,30.6,49a3.36,3.36,0,0,0,2.26,1,4.94,4.94,0,0,0,2.27-.46,23.21,23.21,0,0,0,2.69-1.49c.82-.5,1.46-.86,1.94-1.1a3.93,3.93,0,0,1,1.39-.41,1.56,1.56,0,0,1,1.2.44,1.6,1.6,0,0,1,.43,1.6,5.28,5.28,0,0,1-1.43,2.26,4.67,4.67,0,0,1-2.23,1.46,1.92,1.92,0,0,1-1.9-.48l-.29-.29L35,53.62l.31.34a4,4,0,0,0,2.5,1.15,5,5,0,0,0,2.68-.6,9.6,9.6,0,0,0,2.57-2,8.53,8.53,0,0,0,2.37-4.18A4,4,0,0,0,44,44.68Z"/><path class="cls-1" d="M73.84,20.12c-1.22-2.21-2.71-3.55-4.43-4a7.4,7.4,0,0,0-5.66,1l-5.3,3,7.36,13.21,5.3-2.93A7.48,7.48,0,0,0,74.92,26C75.42,24.29,75.07,22.33,73.84,20.12Zm-1.63,5.4a4.27,4.27,0,0,1-2.28,2.68l-2.8,1.56-5-9,2.81-1.55a4.28,4.28,0,0,1,3.5-.53,5.31,5.31,0,0,1,2.8,2.66l.22.38A5.4,5.4,0,0,1,72.21,25.52Z"/><path class="cls-1" d="M93,18.13l-8.56,3.14L83,17.39l7.51-2.76-.84-2.26-7.51,2.76-1.32-3.55,8.45-3.11-.84-2.26L77.37,10.29,82.6,24.51l11.2-4.12Z"/><path class="cls-1" d="M128.88,12.71l-9.11.46L119.58,9l8-.41-.12-2.39-8,.4-.19-3.79,9-.45L128.11,0,116.32.58l.74,15.13,11.94-.6Z"/><path class="cls-1" d="M149.1,1.49l-3.21-.34L142,5.88l-.12,0L139,.46,135.55.12l4.24,7.65-6.23,7.36,3.21.31L141.23,10l.15,0,3.33,6.24,3.41.34-4.7-8.49Z"/><path class="cls-1" d="M166.8,6.83a4.93,4.93,0,0,0-3.26-2.15l-7-1.8-3.77,14.65,2.73.7L156.8,13,161,14.08a5.17,5.17,0,0,0,4-.34,4.87,4.87,0,0,0,2.15-3.14A5,5,0,0,0,166.8,6.83Zm-2.42,3.05a2.64,2.64,0,0,1-1.06,1.63,2.33,2.33,0,0,1-1.82.22l-4.1-1.06,1.22-4.77,4.1,1A2.21,2.21,0,0,1,164.23,8,2.44,2.44,0,0,1,164.38,9.88Z"/><path class="cls-1" d="M185.26,15.13l.94-2.23L175.31,8.32l-5.87,14,11,4.63.94-2.21L173,21.15l1.61-3.81L182,20.46l.93-2.21-7.39-3.12,1.49-3.5Z"/><path class="cls-1" d="M202.7,23.77a5.18,5.18,0,0,0-2.49-3l-6.82-4.19-7.93,12.87L187.85,31l3.07-5,4,2.47-.65,6.47,2.64,1.63.55-7a4.08,4.08,0,0,0,2.54-.33,4.83,4.83,0,0,0,2-1.9A4.4,4.4,0,0,0,202.7,23.77Zm-3.14,2a2.22,2.22,0,0,1-1.42,1.12,2.39,2.39,0,0,1-1.75-.36L192.17,24l2.38-3.84,4.19,2.62a2.39,2.39,0,0,1,1.18,1.39A2.15,2.15,0,0,1,199.56,25.81Z"/><path class="cls-1" d="M210.54,28.08l-9.4,11.85,2.18,1.75,9.43-11.87Z"/><path class="cls-1" d="M225.6,45.06l1.71-1.7L219,35l-10.7,10.72,8.45,8.42,1.7-1.7L212,46l2.9-2.92,5.68,5.66,1.71-1.71-5.69-5.66,2.69-2.68Z"/><path class="cls-1" d="M238.58,57.61l-7.27,5.32-.93.74-.1,0a2.29,2.29,0,0,1,.22-.53c.09-.24.21-.51.31-.82l3.38-10.62-1.58-2.18-12.21,9L222,60.63l7.31-5.37c.24-.17.43-.34.6-.48a3.2,3.2,0,0,1,.36-.27l.1.05a3.71,3.71,0,0,1-.22.53,7,7,0,0,0-.34.81l-3.43,10.72L228,68.76l12.2-9Z"/><path class="cls-1" d="M248,72.93a7.19,7.19,0,0,0-4.2-4c-1.75-.52-3.77-.19-6.12,1s-3.83,2.66-4.39,4.37a7.24,7.24,0,0,0,.77,5.7,7.47,7.47,0,0,0,3.53,3.65,5.14,5.14,0,0,0,4.67-.34L241,80.89a3.1,3.1,0,0,1-2.71.24A4.3,4.3,0,0,1,236.16,79a4.17,4.17,0,0,1-.39-3.59,6,6,0,0,1,3-2.79l.38-.19a6,6,0,0,1,4-.81,4.2,4.2,0,0,1,2.71,2.42,4.05,4.05,0,0,1,.43,2.83A3.22,3.22,0,0,1,244.48,79l1.32,2.57a5.73,5.73,0,0,0,2.49-2.25,5.44,5.44,0,0,0,.67-3A8.54,8.54,0,0,0,248,72.93Z"/><path class="cls-1" d="M253.5,86l-14.23,5.22,1,2.64,14.19-5.23Z"/><path class="cls-1" d="M258.1,100.63,242,98.42l.67,2.83,3.5.41,1.61,6.74-2.93,2,.72,3,13.36-9.26Zm-2.21,2.42-.31.19c-.84.48-1.51.89-2,1.25L249.9,107l-1.2-5,4.39.53,2.32.22.72,0,0,.11Z"/><path class="cls-1" d="M39.62,210.3l-11.37,10,1.87,2.11,11.35-10Z"/><path class="cls-1" d="M53,223.61l-6,6.69-.77.94-.12-.05a5.35,5.35,0,0,1,.12-.55c0-.26.09-.55.14-.86l1.13-11.11-2-1.8L35.4,228.15l2,1.82,6.07-6.76a5.46,5.46,0,0,0,.48-.6l.29-.34.12,0a4.84,4.84,0,0,1-.12.58,7.12,7.12,0,0,0-.15.84L43,234.93l2,1.75L55,225.41Z"/><path class="cls-1" d="M58.59,228.17l-1.34,2,4.07,2.71-7,10.58L56.62,245l7-10.6,4.08,2.71,1.34-2Z"/><path class="cls-1" d="M82.67,244.57l1-2.15-10.67-5.09L66.55,251l10.77,5.13,1-2.16L70.12,250l1.78-3.72,7.24,3.46,1-2.18-7.24-3.46,1.63-3.4Z"/><path class="cls-1" d="M99.58,248.91a5.28,5.28,0,0,0-3.19-2.23l-7.65-2.3-4.37,14.49,2.71.81,1.68-5.59,4.51,1.35,1,6.43,3,.88L96,255.8a4.07,4.07,0,0,0,2.4-1,4.92,4.92,0,0,0,1.41-2.33A4.59,4.59,0,0,0,99.58,248.91Zm-2.52,2.76A2.24,2.24,0,0,1,96,253.14a2.3,2.3,0,0,1-1.8.09l-4.73-1.41,1.3-4.32,4.72,1.41A2.4,2.4,0,0,1,97,250,2.1,2.1,0,0,1,97.06,251.67Z"/><path class="cls-1" d="M116.36,250.62l-1.2,8.89-.12,1.2-.12,0c0-.1-.12-.27-.21-.51s-.24-.5-.36-.79l-5.3-9.83-2.66-.36-2.07,15,2.69.36,1.25-9c0-.31,0-.55.07-.77a2.2,2.2,0,0,1,0-.45l.12,0c0,.07.09.24.21.53a4.75,4.75,0,0,0,.36.79l5.33,9.93L117,266l2-15Z"/><path class="cls-1" d="M132.81,251.14l-3.54.08-5.62,15.23,2.91-.05,1.15-3.31,6.93-.12,1.29,3.26,3-.05Zm-4.26,9.55,1.46-4.17.72-2.21.21-.69h.1c0,.07.07.16.1.26l.14.36c.29.91.55,1.65.79,2.25l1.61,4.1Z"/><path class="cls-1" d="M157.23,257.81l-2.73.48a3.25,3.25,0,0,1-.6,2.66,4.27,4.27,0,0,1-2.64,1.35,4.17,4.17,0,0,1-3.55-.7,5.94,5.94,0,0,1-1.75-3.69l-.07-.46a6,6,0,0,1,.43-4,4,4,0,0,1,3-1.8.48.48,0,0,1,.14,0,3.94,3.94,0,0,1,2.83.43,2.65,2.65,0,0,1,1,1.18,3.54,3.54,0,0,1,.4,1.2l1.85-.34,1-.17a5.7,5.7,0,0,0-1.39-3,5.53,5.53,0,0,0-2.69-1.56,10,10,0,0,0-6.59,1,5.86,5.86,0,0,0-1.92,1.78c-1,1.48-1.35,3.52-.89,6.11s1.39,4.46,2.83,5.52a8.65,8.65,0,0,0,10.22-1.3A5.24,5.24,0,0,0,157.23,257.81Z"/><path class="cls-1" d="M167.16,258.56,163.49,246l-2.69.79,3.07,10.43,1.2,4.08,2.69-.79Z"/><path class="cls-1" d="M185.67,245.44c-1-2.4-2.42-3.91-4.17-4.58a9,9,0,0,0-10.34,4.48c-.69,1.73-.52,3.77.53,6.16a8,8,0,0,0,4.15,4.61,9.13,9.13,0,0,0,10.34-4.49C186.87,249.87,186.7,247.84,185.67,245.44Zm-2.11,5.42a5.39,5.39,0,0,1-6.47,2.8,5.65,5.65,0,0,1-2.67-3.09l-.16-.41a5.63,5.63,0,0,1-.46-4.08,5.33,5.33,0,0,1,6.45-2.8,5.71,5.71,0,0,1,2.69,3.09l.17.43A5.57,5.57,0,0,1,183.56,250.86Z"/><path class="cls-1" d="M192.51,238.82a6.91,6.91,0,0,0,.79.36l10.48,4.07,2.23-1.41-8.18-12.74-2.3,1.47,4.89,7.58.67,1-.07.1-.5-.27a6.71,6.71,0,0,0-.79-.36l-10.41-4L187.06,236l8.18,12.71,2.28-1.47-4.89-7.62-.43-.63c-.15-.19-.22-.31-.27-.36l0-.12A4.24,4.24,0,0,1,192.51,238.82Z"/><path class="cls-1" d="M208.34,220.33l-2.64,2.35,5.63,15.23,2.19-1.92-1.27-3.29,5.18-4.58,3.09,1.63,2.28-2Zm3,10-1.58-4.12-.91-2.16-.29-.65.07-.07a1.44,1.44,0,0,1,.26.12,1.86,1.86,0,0,0,.34.19,19.43,19.43,0,0,0,2.06,1.2l3.91,2.06Z"/><path class="cls-1" d="M232.39,213l-5.18,6.14L217.5,211l-1.83,2.16,11.59,9.76,7-8.29Z"/><path class="cls-1" d="M149.15,129.53V100.28L136,103.79,125,63.64l14.5-4.48c-10.05-6.15-23.06-9.32-37.68-9.32-38.39,0-54.17,24.12-59,46.94l46.94,9.63C91.3,99.83,94,93.25,99.86,93.25c3.74,0,6.58,2.43,6.58,6.82,0,24.55-61.42,42.1-61.42,86.85v19.31H149.15V164.77H110.61C110.61,157.13,134.25,147.5,149.15,129.53Z"/><path class="cls-1" d="M160.54,52.67l-21,6.49c13.34,8.1,21.54,21.45,21.54,39.57,0,12.46-5,22.51-11.91,30.8v35.24h13.22v41.46h40.3V52.67Z"/></g></g></svg>