<svg xmlns="http://www.w3.org/2000/svg" viewBox="0 0 675.64 507.61"><defs><style>.cls-1{fill:#fff;}</style></defs><title>icon-primeros</title><g id="Capa_2" data-name="Capa 2"><g id="Capa_2-2" data-name="Capa 2"><polygon class="cls-1" points="659.64 390 481 390 481 318.5 481 302.5 465 302.5 214 302.5 198 302.5 198 318.5 198 432.5 16 432.5 0 432.5 0 432.5 0 507.61 16 507.61 16 448.5 198 448.5 198 507.61 214 507.61 214 448.5 214 432.5 214 318.5 465 318.5 465 507.61 481 507.61 481 406 659.64 406 659.64 507.61 675.64 507.61 675.64 406 675.64 390 659.64 390"/><circle class="cls-1" cx="336.31" cy="205" r="23"/><circle class="cls-1" cx="261.81" cy="170" r="23"/><circle class="cls-1" cx="243.81" cy="87.5" r="23"/><circle class="cls-1" cx="295.81" cy="23" r="23"/><circle class="cls-1" cx="378.31" cy="23" r="23"/><circle class="cls-1" cx="430.31" cy="87.5" r="23"/><circle class="cls-1" cx="412.31" cy="170" r="23"/><path class="cls-1" d="M311.78,448.22h23v-54.5H311.65V381.38a69.81,69.81,0,0,0,17.6-3.95,116,116,0,0,0,18.59-8.25h7.35v79h22.6V465h-66Z"/></g></g></svg>