<svg xmlns="http://www.w3.org/2000/svg" viewBox="0 0 34.92 34.92"><defs><style>.cls-1{fill:#fff;}</style></defs><title>icon-linkedin</title><g id="Capa_2" data-name="Capa 2"><g id="Capa_2-2" data-name="Capa 2"><path class="cls-1" d="M31.76,0H3.16A3.15,3.15,0,0,0,0,3.16v28.6a3.16,3.16,0,0,0,3.16,3.16h28.6a3.17,3.17,0,0,0,3.16-3.16V3.16A3.16,3.16,0,0,0,31.76,0Zm-21,30.15a.92.92,0,0,1-.92.92H6a.92.92,0,0,1-.92-.92V13.75A.92.92,0,0,1,6,12.83H9.89a.92.92,0,0,1,.92.92ZM7.93,11.28a3.72,3.72,0,1,1,3.72-3.71A3.72,3.72,0,0,1,7.93,11.28Zm23.32,19a.84.84,0,0,1-.84.84h-4.2a.85.85,0,0,1-.85-.84v-7.7c0-1.15.34-5-3-5-2.59,0-3.12,2.66-3.22,3.85v8.88a.85.85,0,0,1-.85.84H14.24a.84.84,0,0,1-.84-.84V13.67a.84.84,0,0,1,.84-.84H18.3a.85.85,0,0,1,.85.84v1.44c1-1.44,2.38-2.56,5.42-2.56,6.72,0,6.68,6.29,6.68,9.74v7.94Z"/></g></g></svg>