<svg xmlns="http://www.w3.org/2000/svg" viewBox="0 0 598.75 544"><defs><style>.cls-1{fill:#fff;}</style></defs><title>icon-capacitaciones</title><g id="Capa_2" data-name="Capa 2"><g id="Capa_2-2" data-name="Capa 2"><path class="cls-1" d="M299.38,196a89,89,0,1,0,89,89A89.09,89.09,0,0,0,299.38,196Zm0,162a73,73,0,1,1,73-73A73.07,73.07,0,0,1,299.38,358Z"/><path class="cls-1" d="M558.37,0h-518V259H197.65a104.89,104.89,0,0,1,5.52-16H56.37V16h486V243H395.58a103.79,103.79,0,0,1,5.51,16H558.37Z"/><path class="cls-1" d="M493.63,422.5a72.75,72.75,0,1,1,72.75-72.75A72.83,72.83,0,0,1,493.63,422.5Zm0-129.5a56.75,56.75,0,1,0,56.75,56.75A56.81,56.81,0,0,0,493.63,293Z"/><path class="cls-1" d="M105.17,422.5a72.75,72.75,0,1,1,72.75-72.75A72.83,72.83,0,0,1,105.17,422.5Zm0-129.5a56.75,56.75,0,1,0,56.75,56.75A56.82,56.82,0,0,0,105.17,293Z"/><path class="cls-1" d="M436.88,544h-16c0-63.06-15.82-92.82-29.09-106.69C378.07,423,364.6,422.51,364,422.5l.09-16c.79,0,19.71.21,38,18.53C425.19,448.07,436.88,488.09,436.88,544Z"/><path class="cls-1" d="M177.91,544h-16c0-55.91,11.68-95.93,34.71-119,18.32-18.32,37.24-18.53,38-18.53v8l.08,8c-.56,0-14,.48-27.75,14.81C193.72,451.18,177.91,480.94,177.91,544Z"/><path class="cls-1" d="M598.75,520h-16c0-58.33-27-73.84-28.14-74.47l7.45-14.16C563.55,432.16,598.75,451.19,598.75,520Z"/><path class="cls-1" d="M16,520H0c0-68.82,35.2-87.85,36.69-88.63l7.37,14.21-3.68-7.11,3.76,7.06C43,446.17,16,461.68,16,520Z"/></g></g></svg>