<svg xmlns="http://www.w3.org/2000/svg" viewBox="0 0 962 538.5"><defs><style>.cls-1{fill:#dbdbdb;}.cls-2{fill:#2b5597;}.cls-3{fill:#ed6b27;}.cls-4{fill:#ea0029;}.cls-5{fill:#007cba;}.cls-6{fill:#68813c;}.cls-7{fill:#624b78;}.cls-8{fill:#ffb600;}.cls-9{fill:#000f9f;}</style></defs><title>icon-por-que-nosotros</title><g id="Capa_2" data-name="Capa 2"><g id="Capa_2-2" data-name="Capa 2"><ellipse class="cls-1" cx="59" cy="529.2" rx="59" ry="9.3"/><ellipse class="cls-1" cx="916.61" cy="529.2" rx="45.39" ry="9.3"/><circle id="_Trazado_" data-name="&lt;Trazado&gt;" class="cls-2" cx="471.06" cy="109.62" r="8.82"/><circle id="_Trazado_2" data-name="&lt;Trazado&gt;" class="cls-3" cx="540.59" cy="75.83" r="8.82"/><circle id="_Trazado_3" data-name="&lt;Trazado&gt;" class="cls-4" cx="484.84" cy="49.19" r="8.82"/><circle id="_Trazado_4" data-name="&lt;Trazado&gt;" class="cls-5" cx="501.8" cy="124.41" r="8.82"/><circle id="_Trazado_5" data-name="&lt;Trazado&gt;" class="cls-6" cx="463.3" cy="75.83" r="8.82"/><circle id="_Trazado_6" data-name="&lt;Trazado&gt;" class="cls-7" cx="519" cy="49.19" r="8.82"/><circle id="_Trazado_7" data-name="&lt;Trazado&gt;" class="cls-8" cx="532.87" cy="109.28" r="8.82"/><path class="cls-9" d="M767.17,194.25H623.53V30.68A30.71,30.71,0,0,0,592.85,0H390.79a30.71,30.71,0,0,0-30.68,30.68V259H216.68A30.71,30.71,0,0,0,186,289.64V534H797.85V224.93A30.71,30.71,0,0,0,767.17,194.25ZM360.11,518H202V289.64A14.69,14.69,0,0,1,216.68,275H360.11Zm247.42,0H376.11V30.68A14.69,14.69,0,0,1,390.79,16H592.85a14.69,14.69,0,0,1,14.68,14.68Zm174.32,0H623.74V210.25H767.17a14.7,14.7,0,0,1,14.68,14.68Z"/><rect class="cls-9" x="410.5" y="193.92" width="87.97" height="16"/><rect class="cls-9" x="475.25" y="258.67" width="87.97" height="16"/><rect class="cls-9" x="410.5" y="323.42" width="87.97" height="16"/><rect class="cls-9" x="475.25" y="388.17" width="87.97" height="16"/><rect class="cls-9" x="241.67" y="323.75" width="60.67" height="16"/><rect class="cls-9" x="241.67" y="388.48" width="60.67" height="16"/><rect class="cls-9" x="672.46" y="258.86" width="60.67" height="16"/><rect class="cls-9" x="672.46" y="323.59" width="60.67" height="16"/><rect class="cls-9" x="672.46" y="388.32" width="60.67" height="16"/><path class="cls-9" d="M59,186.7c-27.25,0-41.5,51.31-41.5,102C17.5,334.17,29,380.13,51,389.12V529.2H67V389.12c22-9,33.5-54.95,33.5-100.42C100.5,238,86.25,186.7,59,186.7Zm0,188c-10.15,0-25.5-34.3-25.5-86s15.35-86,25.5-86,25.5,34.3,25.5,86S69.15,374.7,59,374.7Z"/><path class="cls-9" d="M947.46,264.75c-7.76-15.51-18.71-24.05-30.85-24.05s-23.09,8.54-30.84,24.05c-6.87,13.74-10.66,31.84-10.66,50.95s3.79,37.21,10.66,51c6,12,13.93,19.81,22.84,22.74V529.2h16V389.4c8.91-2.93,16.84-10.73,22.85-22.74,6.87-13.75,10.65-31.84,10.65-51S954.33,278.49,947.46,264.75Zm-30.85,110c-12,0-25.5-25.23-25.5-59s13.46-59,25.5-59,25.5,25.23,25.5,59S928.65,374.7,916.61,374.7Z"/></g></g></svg>