<svg xmlns="http://www.w3.org/2000/svg" viewBox="0 0 34.35 35.29"><defs><style>.cls-1{fill:#fff;}</style></defs><title>icon-instagram</title><g id="Capa_2" data-name="Capa 2"><g id="Capa_2-2" data-name="Capa 2"><path class="cls-1" d="M24.36,0H10A10,10,0,0,0,0,10V25.3a10,10,0,0,0,10,10H24.36a10,10,0,0,0,10-10V10A10,10,0,0,0,24.36,0Zm7.35,25.3a7.37,7.37,0,0,1-7.35,7.35H10A7.37,7.37,0,0,1,2.64,25.3V10A7.37,7.37,0,0,1,10,2.64H24.36A7.37,7.37,0,0,1,31.71,10Z"/><path class="cls-1" d="M26.69,17.51a9.46,9.46,0,1,1-9.46-9.46A9.47,9.47,0,0,1,26.69,17.51Zm-9.51-6.19a6.2,6.2,0,1,0,6.2,6.2A6.2,6.2,0,0,0,17.18,11.32Z"/><circle class="cls-1" cx="26.84" cy="7.9" r="2.24"/></g></g></svg>