<svg xmlns="http://www.w3.org/2000/svg" viewBox="0 0 502.63 534"><defs><style>.cls-1{fill:#000f9f;}</style></defs><title>icon-copa</title><g id="Capa_2" data-name="Capa 2"><g id="Capa_2-2" data-name="Capa 2"><path class="cls-1" d="M485.68,135.57l-12.1-48.78a29,29,0,0,0-56.2-.61L388.79,191.47V0h-275V192.27L85,86.18a29,29,0,0,0-56.21.62L16.69,135.56,0,202.26l16.91,66.68L32.42,265,16.5,202.24l15.71-62.81,12.1-48.78a13,13,0,0,1,25.24-.28l44.24,163V267c0,69.2,82.06,124.43,98.36,134.71L225.5,456.2c-57.25,12.63-107,61.76-109.36,64.14L102.48,534H400.11l-13.66-13.66c-2.39-2.38-52.05-51.45-109.26-64.12l13.63-54.63c16.73-10.61,98-65.67,98-134.58V252.54l44-162.17a13,13,0,0,1,25.24.28l12.1,48.8,16,63.69-15.95,62,15.5,4,17-66ZM142.88,518c22.37-18.37,65.82-48.75,108.41-48.75s86,30.38,108.4,48.75Zm108.41-64.75c-3.31,0-6.62.16-9.92.46L229.31,404.5H273.6l-12.27,49.22C258,453.42,254.65,453.25,251.29,453.25ZM372.79,267c0,60.91-78.22,113.21-91.24,121.49H221.2c-13-8.27-91.41-60.57-91.41-121.49V16h243Z"/></g></g></svg>