<svg xmlns="http://www.w3.org/2000/svg" viewBox="0 0 507 312.74"><defs><style>.cls-1{fill:#fff;}</style></defs><title>icon-hand</title><g id="Capa_2" data-name="Capa 2"><g id="Capa_2-2" data-name="Capa 2"><path class="cls-1" d="M501.71,21.58c-81.19,0-126.51,19.83-131.41,22.09a5.22,5.22,0,0,0-2.78,3.26,5.37,5.37,0,0,0,.31,3.84l5.95,12.39-12.85-4.87c-15.47-5.86-38.8-15-62.11-25.47-34.71-15.52-58.08-13-86.22,9.16l-1.5,1.18H116.57l.83-6.23c.46-3.46.82-6.69,1.08-9.61a5.2,5.2,0,0,0-1.61-4.27C103.2,10.09,48.39,2.54,5.62,0A5.12,5.12,0,0,0,1.68,1.42,5.31,5.31,0,0,0,0,5.29V199.54a5.29,5.29,0,0,0,5.29,5.29H70a5.26,5.26,0,0,0,5-3.65c.22-.67,1.12-3.44,2.52-7.84l2.79-8.78,6.41,6.62c1.77,1.83,3.68,3.82,5.66,5.89L95,199.7c9.46,9.88,19.23,20.09,25.65,25.47,40,33.51,88,69.64,97.6,75.92,7.36,4.84,23.18,11.65,35.29,11.65,9.23,0,16.28-2,21-5.92l2.49-2.09,3,1.18a28.22,28.22,0,0,0,20.55-.26,37,37,0,0,0,19.53-18l1.89-3.84,4.19.9a36.48,36.48,0,0,0,23.47-3.45c7.28-3.66,12.75-9.33,15.38-15.94l1.47-3.66,3.93.21a29.79,29.79,0,0,0,20.89-7.56c8.28-7.08,11.88-17.11,9.88-27.52l-.69-3.57,26.24-17.63,2.19,7.06c1.24,4,2.23,7.35,2.95,9.93a5.3,5.3,0,0,0,5.1,3.88h64.75a5.29,5.29,0,0,0,5.29-5.29V26.87A5.29,5.29,0,0,0,501.71,21.58ZM67.41,190.41l-1.22,3.84H10.58V10.9l5.94.47C49.25,14,89.06,19.86,104.19,27.21l3.53,1.71-.47,3.9C101.46,80.64,75.29,165.53,67.41,190.41Zm317,55.79c-6,5.1-13.86,6.52-19.2,3.43l-.7-.47c-8.67-6.95-45.66-44.95-64-64.07a5.29,5.29,0,1,0-7.65,7.32c10.59,11,46.31,48.12,61.27,61.76l2.47,2.25-.86,3.23c-1.78,6.68-7.57,10.44-10.86,12.08-8.34,4.23-18,4-22.92-.42l-.39-.35c-13.27-10.61-46-45.38-53.36-53.41a5.35,5.35,0,0,0-7.51-.31,5.32,5.32,0,0,0-.31,7.47l.21.22c5.41,5.82,33.23,35.58,49.36,50l2.85,2.56-1.41,3.57a26.39,26.39,0,0,1-14.65,14.67c-6.68,2.53-13,1.52-17.91-2.84l-.33-.3c-15.72-13.27-47.32-46.92-53.51-53.53a5.25,5.25,0,0,0-3.71-1.68,5.14,5.14,0,0,0-3.76,1.41,5.33,5.33,0,0,0-.26,7.51c6.4,6.84,28.56,30.4,45.15,46l8.41,7.91-11.45,1.54a43.24,43.24,0,0,1-5.88.35c-8.51,0-22.36-5.25-29.48-10-7.72-5.08-55.65-40.86-96.6-75.15-6-5.09-16.1-15.59-25-24.86-6.3-6.58-12.27-12.79-16.16-16.44l-2.49-2.34,1-3.26c9.38-31,22-75.54,29.08-111.95l.86-4.45h84l-9.33,9.37c-13.79,13.87-32.62,41.62-28,61.21,1.76,7.4,7.06,12.9,14.91,15.49,22.19,7.32,42,.48,57.27-19.8l1.35-1.79,2.21-.34c6.25-1,9.53-2.35,14.79-4.72,2-.88,4.44-2,7.75-3.32l3.26-1.31,2.56,2.4c12.39,11.63,29.6,25.54,46.24,39,32.2,26,68.69,55.55,77.31,73.49C395,235.83,387,244,384.41,246.2Zm11.34-32.61-3.13-4.18c-14.47-19.34-44.86-43.92-74.24-67.69-19.7-15.92-38.3-31-50.36-43a5.3,5.3,0,0,0-5.54-1.23c-6.76,2.44-11,4.34-14.44,5.87l-.48.21c-5.68,2.55-8,3.6-16.17,4.42a5.28,5.28,0,0,0-3.88,2.31c-13.07,19.55-28.75,25.93-47.93,19.49-5.88-2-7.33-5.45-7.9-7.91-3-12.59,10.65-36.76,25.31-51.42,17-17,31.42-29.29,46.88-34.28,14.82-4.79,30-2.89,50.62,6.34,36.22,16.2,72.87,29.58,83.24,33.29l2.3.82.93,2.26c12.94,31.47,30.32,80.25,41,112.26l1.32,4Zm100.67,2.24H441l-1.2-3.89c-10.33-33.65-40.58-120.37-57-155.41L380.13,51,386,49c16.82-5.71,52.8-15.47,104.83-16.7l5.63-.13Z"/></g></g></svg>