<svg xmlns="http://www.w3.org/2000/svg" viewBox="0 0 194.58 147.17"><defs><style>.cls-1{fill:#fff;}</style></defs><title>icon-mail</title><g id="Capa_2" data-name="Capa 2"><g id="Capa_2-2" data-name="Capa 2"><path class="cls-1" d="M183.4,0H11.18A11.19,11.19,0,0,0,0,11.18V136a11.18,11.18,0,0,0,11.18,11.17H183.4A11.19,11.19,0,0,0,194.58,136V11.18A11.19,11.19,0,0,0,183.4,0Zm0,5.83a5.36,5.36,0,0,1,1,.09L97.22,75.68,10.16,5.93a4.9,4.9,0,0,1,1-.1ZM188.75,136a5.36,5.36,0,0,1-5.35,5.35H11.18A5.36,5.36,0,0,1,5.83,136V11.18A4.83,4.83,0,0,1,6,10L97.22,83.15,188.62,10a5.67,5.67,0,0,1,.13,1.17Z"/></g></g></svg>