<svg xmlns="http://www.w3.org/2000/svg" viewBox="0 0 404.5 541.42"><defs><style>.cls-1{fill:#000f9f;}</style></defs><title>icon-gps</title><g id="Capa_2" data-name="Capa 2"><g id="Capa_2-2" data-name="Capa 2"><path class="cls-1" d="M202.25,541.42l-6-6.79c-.49-.55-49.41-56.05-97.66-124C33.17,318.55,0,248.44,0,202.25,0,90.73,90.73,0,202.25,0S404.5,90.73,404.5,202.25c0,46.19-33.17,116.3-98.6,208.41-48.25,67.92-97.17,123.42-97.66,124Zm0-525.42C99.55,16,16,99.55,16,202.25c0,92.59,153.71,276.89,186.25,314.86,32.54-38,186.25-222.27,186.25-314.86C388.5,99.55,305,16,202.25,16Z"/><path class="cls-1" d="M202.25,307.22a105,105,0,1,1,105-105A105.09,105.09,0,0,1,202.25,307.22Zm0-193.94a89,89,0,1,0,89,89A89.07,89.07,0,0,0,202.25,113.28Z"/></g></g></svg>