<svg xmlns="http://www.w3.org/2000/svg" viewBox="0 0 34.91 34.92"><defs><style>.cls-1{fill:#fff;}</style></defs><title>icon-facebook</title><g id="Capa_2" data-name="Capa 2"><g id="Capa_2-2" data-name="Capa 2"><path class="cls-1" d="M28.25,0H6.65A6.65,6.65,0,0,0,0,6.65V28.26a6.66,6.66,0,0,0,6.65,6.66H17.73V19.2H14.38V14.33h3.35V10.17S17.36,3.6,24,3.6a29.29,29.29,0,0,1,6,.62l-.86,5S24,7.74,24,10.37v4h5.34L29,19.2H24V34.92h4.21a6.67,6.67,0,0,0,6.66-6.66V6.65A6.67,6.67,0,0,0,28.25,0Z"/></g></g></svg>