<svg xmlns="http://www.w3.org/2000/svg" viewBox="0 0 34.91 34.92"><defs><style>.cls-1{fill:#fff;}</style></defs><title>icon-twitter</title><g id="Capa_2" data-name="Capa 2"><g id="Capa_2-2" data-name="Capa 2"><path class="cls-1" d="M28.25,0H6.65A6.65,6.65,0,0,0,0,6.65V28.26a6.65,6.65,0,0,0,6.65,6.66h21.6a6.66,6.66,0,0,0,6.66-6.66V6.65A6.66,6.66,0,0,0,28.25,0Zm.87,10.39a10.25,10.25,0,0,1-2.19,2.22,14.11,14.11,0,0,1-2.72,8.92,13.38,13.38,0,0,1-6.37,4.86,1.57,1.57,0,0,0-.49.16c-.41.09-.78.2-1.16.3-.06,0-.13,0-.14,0-.35.05-.68.1-1,.17H15c-.06,0-.2,0-.2,0h-.07c-.07,0-.22,0-.24,0h-.09c-.1,0-.26,0-.3,0h-.17c-.18,0-.45,0-.56,0h-.67c-.12-.08-.39,0-.56,0H12c0-.07-.21,0-.3,0h-.1c0-.08-.16,0-.23,0H11.3c0-.06-.12,0-.17,0h-.07c0-.07-.12,0-.17,0h-.06A.84.84,0,0,0,10.5,27a.58.58,0,0,0-.24,0A19.13,19.13,0,0,1,7.43,26s0-.06-.1,0A.62.62,0,0,0,7,25.82s0,0-.07,0-.07-.06-.13-.06a.5.5,0,0,0-.27-.14c-.25-.23-.77-.37-.9-.61h.16c.09.08.31,0,.44,0h.17a.8.8,0,0,0,.57,0H7.1c.14,0,.35,0,.44,0h0c.08,0,.24,0,.26,0H7.9c.06,0,.19,0,.2,0h0a9.22,9.22,0,0,0,4.56-2c-.06-.07-.26,0-.37,0h0c-.22-.07-.47-.09-.7-.14,0,0-.06-.05-.13,0A5,5,0,0,1,8.2,19.7s0-.09,0-.11,0,0,.06-.06a1.11,1.11,0,0,0,.53.06h0a3.9,3.9,0,0,0,1.54-.12A4.94,4.94,0,0,1,6.44,14.6a4.94,4.94,0,0,0,2.13.58,5.21,5.21,0,0,1-2.1-4.06A5.46,5.46,0,0,1,7.1,8.69a8.44,8.44,0,0,1,.94,1,13.8,13.8,0,0,0,9.17,4.13c-.48-3.19,1.45-5.8,4.43-6a5,5,0,0,1,4,1.54A11.1,11.1,0,0,0,28.7,8.15a5.06,5.06,0,0,1-2.07,2.66,9.41,9.41,0,0,0,2.66-.73C29.37,10.21,29.19,10.3,29.12,10.39Z"/></g></g></svg>