<svg xmlns="http://www.w3.org/2000/svg" viewBox="0 0 3116.83 837.5"><defs><style>.cls-1{fill:#75b00a;}</style></defs><title>logo-ensti</title><g id="Capa_2" data-name="Capa 2"><g id="Capa_1-2" data-name="Capa 1"><path class="cls-1" d="M1316,214.33c165,0,262,113.8,262,285,0,9.39,0,18.79-1,28.18H1166.7c2.08,97.1,72,159.74,169.13,159.74,82.47,0,129.45-45.94,150.34-76.21l75.16,56.38c-26.09,44.88-98.13,119-227.59,119-170.17,0-282.93-119-282.93-284C1050.81,333.35,1166.7,214.33,1316,214.33Zm146.16,234.9C1458,359.45,1395.34,309.34,1317,309.34s-138.86,54.29-146.17,139.89Z"/><path class="cls-1" d="M2120.76,445.05V772.88H2008V435.67c0-75.17-47-119-109.62-119-72,0-119,53.25-119,127.37V772.88h-113.8v-545h111.71v71c24-42.81,80.39-84.57,153.47-84.57C2071.7,214.33,2120.76,326.05,2120.76,445.05Z"/><path class="cls-1" d="M2264.89,621.51c25,36.53,62.64,71,130.49,71,48,0,83.52-24,83.52-67.86,0-104.4-265.17-66.81-265.17-255.78,0-96.06,81.43-154.52,186.87-154.52,102.32,0,156.61,59.51,177.49,101.27l-78.3,52.2c-15.66-25.06-44.9-60.56-105.45-60.56-41.77,0-73.09,21.94-73.09,59.51,0,104.41,266.23,60.56,266.23,252.66,0,101.27-85.61,167.05-197.31,167.05-110.67,0-169.14-59.51-196.28-108.59Z"/><path class="cls-1" d="M2686.62,114.11h112.77v113.8h110.66v94H2799.39V575.56c0,84.57,32.35,103.36,92.91,103.36,9.4,0,21.92-1,21.92-1V776s-19.83,4.18-55.32,4.18c-132.6,0-172.28-88.74-172.28-222.37v-236h-60.54v-94h60.54Z"/><path class="cls-1" d="M3045.84,22.23a70.41,70.41,0,0,1,71,71,71,71,0,1,1-142,0A70.41,70.41,0,0,1,3045.84,22.23Zm-56.37,205.68h113.8v545h-113.8Z"/><path class="cls-1" d="M433.57,696.8c-43.8,0-79.31-30.89-79.31-74.68a79,79,0,0,1,23.46-56.3.12.12,0,0,1,0-.05,36.08,36.08,0,0,1,3.9-3.62l.3-.25c1-.78,2-1.57,3.19-2.4,6-4.3,16.3-10.08,32.56-15.1q5.17-1.62,11.17-3.09L430,541c42.94-10.62,92.61-26.15,135.44-60.8a221.15,221.15,0,0,0,62-79.16c15.74-33.81,23.72-72.93,23.72-116.26,0-44-7.77-84.8-23.1-121.3a257.3,257.3,0,0,0-64.73-91.82C512.26,25.46,442.54,0,367,0c-91.53,0-182.51,37.17-249.6,102C80.65,137.45,51.94,180,32,228.33,10.76,279.89,0,337.16,0,398.56,0,469,11.53,532.88,34.29,588.45,55,639,85.06,683.12,123.71,719.73c32.81,31.08,71.93,56.81,116.26,76.49a521.2,521.2,0,0,0,112,34.72c47.22,9.17,86.14,6,106.63,6,2.9,0,5.43,0,7.57-.07.94,0,1.89.07,2.85.07a70,70,0,1,0,0-140.08Zm45.68-323.07c-21.88,17.71-52.41,27-82.14,34.31l-.76.19c-35.3,8.63-65.8,22-90.65,39.67-56.13,40-79.91,100.85-65.29,167.11q3.22,15.32,7.21,29.25a247.23,247.23,0,0,1-29.7-24C164.22,569.4,137,494.81,137,398.56,137,206.66,274.52,137,367,137c41.51,0,78.56,12.86,104.34,36.22,28.41,25.74,42.82,63.28,42.82,111.59C514.12,339.22,494.22,361.62,479.25,373.73Z"/><circle class="cls-1" cx="674.57" cy="720.34" r="76.06"/></g></g></svg>