<svg xmlns="http://www.w3.org/2000/svg" viewBox="0 0 1434.05 379.37"><defs><style>.cls-1,.cls-2{fill:#fff;}.cls-2{fill-rule:evenodd;}</style></defs><title>logo-disecom-white</title><g id="Capa_2" data-name="Capa 2"><g id="Layer_1" data-name="Layer 1"><path class="cls-1" d="M1285,43.9V96.32h-7.69V43.9h-11.45V38.8h30.59v5.1Z"/><path class="cls-1" d="M1315.41,56.11a18,18,0,0,0-4.43-.51,11.17,11.17,0,0,0-5.85,1.42v39.3h-7.36V53.68a26.12,26.12,0,0,1,7.53-2.46,73.65,73.65,0,0,1,11.87-.71Z"/><path class="cls-1" d="M1336.33,97.15c-5.73,0-10-1.15-12.87-3.47s-4.26-5.58-4.26-9.82q0-8.28,6.6-12T1344.36,67V64.22c0-3.29-.88-5.61-2.63-6.94a11.84,11.84,0,0,0-7.32-2,19.84,19.84,0,0,0-5.68.79,33.53,33.53,0,0,0-5.19,2l-1.75-4.34a30.29,30.29,0,0,1,13.79-3.35q6.95,0,11.33,3.47c2.93,2.32,4.39,6,4.39,11.16V94a25.23,25.23,0,0,1-6.44,2.34A39.2,39.2,0,0,1,1336.33,97.15Zm8-26.41q-9.36,1.17-13.75,3.88t-4.39,9.07c0,3.12.92,5.44,2.76,6.94s4.48,2.26,7.94,2.26a15.51,15.51,0,0,0,7.44-1.51Z"/><path class="cls-1" d="M1377.75,97.15q-9.45,0-14.63-6.11t-5.18-16.58q0-11.05,5.33-17.38a17.63,17.63,0,0,1,14.17-6.32,26.8,26.8,0,0,1,7.08,1V30.69h7.36V94a20,20,0,0,1-6,2.29A35.23,35.23,0,0,1,1377.75,97.15Zm6.77-41.29a22.47,22.47,0,0,0-2.69-.59A17.58,17.58,0,0,0,1379,55q-7.21,0-10.44,5.28t-3.24,13.57q0,8.55,3.07,13.49c2,3.3,5.28,4.94,9.69,4.94,3,0,5.2-.41,6.47-1.25Z"/><path class="cls-1" d="M1405.71,76.59q0,7.51,3.68,11.37t10,3.84a25.69,25.69,0,0,0,6.31-.67,18.46,18.46,0,0,0,4.81-1.92l1.92,4.85a21.49,21.49,0,0,1-5.73,2.21,32,32,0,0,1-7.9.88q-9.19,0-14.62-5.89t-5.44-17.6q0-11.2,5-17.22a16.22,16.22,0,0,1,13.16-6q8.28,0,12.71,5.48t4.43,16.59Zm11-21.4a9.46,9.46,0,0,0-8.19,4.3q-3,4.31-3,13.16L1427,69.37q0-7.43-2.64-10.8C1422.64,56.31,1420.06,55.19,1416.66,55.19Z"/><path class="cls-1" d="M1245.11,68.23a3.78,3.78,0,0,1,1.72.56,1.85,1.85,0,0,1,.68,1,4,4,0,0,1,.12,1.32c0,.48,0,1,0,1.44a11.07,11.07,0,0,1-3,1.32,26.62,26.62,0,0,1-4,.8c-1.44.18-3,.32-4.52.4s-3.13.14-4.67.2c-.27,1.49-.59,3.08-1,4.75a55.59,55.59,0,0,1-1.84,6.12,8.22,8.22,0,0,1-2.56,3.47,5.16,5.16,0,0,1-3,1,7.24,7.24,0,0,1-3.15-.76,23.14,23.14,0,0,1-3-1.72,12,12,0,0,1-.08-2.47c0-1,.13-2,.24-3.08s.25-2.18.44-3.28.36-2.17.52-3.23c-1.71.26-3.08.5-4.12.72a16.57,16.57,0,0,0-2.2.55,5.73,5.73,0,0,1-2.39-.55,4.8,4.8,0,0,1-1.44-1.16,7.17,7.17,0,0,1-1-1.56c-.27-.59-.59-1.2-1-1.84a3.13,3.13,0,0,0,.12-1.84,3,3,0,0,0-.92-1.84c.43,0,.75-.36,1-.92a1.27,1.27,0,0,0,0-1.24,18.53,18.53,0,0,1,2.76-.44l2.91-.2a24.73,24.73,0,0,0,2.72-.28,7.55,7.55,0,0,0,2.24-.67c.75,0,1.45,0,2.12,0s1.37,0,2.12,0a2.78,2.78,0,0,0-.08-1.76,1.81,1.81,0,0,1-.16-1.28.82.82,0,0,1,.6-.52.66.66,0,0,0,.52-.52A3.21,3.21,0,0,0,1222,59a2.29,2.29,0,0,1,.32-1.56c.26-.42.62-1.09,1.07-2a5,5,0,0,0,.52-2.87,9.51,9.51,0,0,0,1.48-1.28,12.8,12.8,0,0,1,1.44-1.32,8.93,8.93,0,0,1,1.68-1,5.29,5.29,0,0,1,2.28-.44,6.87,6.87,0,0,1,1,1.68c.21.53.42,1,.64,1.52a5.88,5.88,0,0,0,.84,1.36,5.21,5.21,0,0,0,1.55,1.2,8,8,0,0,1-.24,1.75c-.16.7-.29,1.39-.4,2.08a7.9,7.9,0,0,0-.08,1.84A1.3,1.3,0,0,0,1235,61c-.21.59-.41,1.16-.6,1.72s-.36,1.1-.52,1.64a20.15,20.15,0,0,0,3.12.27,23.93,23.93,0,0,1,3.36.32,10.44,10.44,0,0,1,2.92,1A3.88,3.88,0,0,1,1245.11,68.23Z"/><path class="cls-1" d="M592.33,304.88V167.71a16,16,0,0,1,16-16h44.09q35.17,0,52.55,18.71,17.37,19.6,17.37,57.9,0,20.49-6.23,37-7.14,16.92-18.71,25.83a60.92,60.92,0,0,1-20.93,10.69q-10.69,3.12-32.51,3.11Zm30.73-27.61h25.39q21.81,0,32.07-11.58,9.79-10.69,9.8-37.41,0-25.83-9.36-37.86-8.91-12-28.5-12h-29.4Z"/><path class="cls-1" d="M740.41,151.67h16a15.23,15.23,0,0,1,15.14,15.14v9.36H740.41Zm0,34.74h16a15.23,15.23,0,0,1,15.14,15.15V304.88H740.41Z"/><path class="cls-1" d="M779.37,265.69h30.29q.44,8.91,6.68,13.36,6.67,4.45,17.82,4.46a28.7,28.7,0,0,0,13.8-3.12q5.35-3.12,5.35-8.46,0-8-18.71-12a85.2,85.2,0,0,1-12-2.67Q799,251.44,791,243.42q-8.91-8-8.9-21.38A35.49,35.49,0,0,1,795,194q13.37-10.23,34.74-10.24,23.16,0,37,10.24,12.92,11.15,13.81,29H861.32q-8.46,0-12.91-7.57-1.78-1.77-3.56-3.56-5.36-4-14.7-4-8.92,0-13.36,2.67a9,9,0,0,0-4,8q0,7.13,23.16,12a47.28,47.28,0,0,0,4.67,1.33,17.36,17.36,0,0,0,3.79.45q22.71,5.79,31.62,13.36,8.46,8,8.46,21.38,0,19.61-14.25,30.28-13.37,9.81-40.08,9.8-25.39,0-37.86-10.24Q779.38,286.63,779.37,267Z"/><path class="cls-1" d="M980.9,268.36h22.27q-4.9,18.7-18.71,28.51-13.8,10.25-34.74,10.24-25.38,0-39.64-16.48-14.25-16-14.25-45.87,0-28.5,13.81-44.54,14.25-16.47,39.64-16.48,26.72,0,41.42,16Q1005,216.26,1005,245.65v4.9a7.8,7.8,0,0,1-.44,3.12H927.45q.45,13.8,6.69,20.48,5.77,7.14,17.37,7.13a25.19,25.19,0,0,0,12.91-3.12,6.08,6.08,0,0,0,2.45-1.56l2.45-2.45c.29-.89,1.41-2.07,3.34-3.56S977.34,268.36,980.9,268.36Zm-53.45-34.74h45.43q-.89-12-6.23-17.81-5.79-6.24-16.48-6.24-9.81,0-16,6.24T927.45,233.62Z"/><path class="cls-1" d="M1101.37,268.36h22.27q-4.91,18.7-18.71,28.51-13.8,10.25-34.74,10.24-25.38,0-39.64-16.48-14.25-16-14.25-45.87,0-28.5,13.81-44.54,14.25-16.47,39.64-16.48,26.71,0,41.42,16a61.25,61.25,0,0,1,11.58,22.72h-31.18a26.24,26.24,0,0,0-4.45-6.68q-5.8-6.24-16.48-6.24-9.81,0-16,6.24-8,8.91-8,29.39t8,28.95q5.79,7.14,17.37,7.13a25.2,25.2,0,0,0,12.92-3.12,6.15,6.15,0,0,0,2.45-1.56l2.45-2.45a19.62,19.62,0,0,1,3.56-3.56C1095.13,269.11,1097.81,268.36,1101.37,268.36Z"/><path class="cls-1" d="M1152.36,294.2q-9.36-8-13.37-21.61a99.43,99.43,0,0,1-4-28.28,89.43,89.43,0,0,1,3.34-24.05,49.48,49.48,0,0,1,10.46-20q11.58-13.36,29.84-15.81t33,2.89a45.43,45.43,0,0,1,24.94,23.16q7.58,14.7,7.57,34.3,0,14.25-3.11,24.49a62.7,62.7,0,0,1-8,17.37q-10.7,14.7-27.17,18.26a60.49,60.49,0,0,1-29.62.67Q1161.26,302.22,1152.36,294.2Zm21.37-78.39q-9.35,10.24-8.46,30.51t7.57,28.28q2.67,3.57,9.36,6a21.25,21.25,0,0,0,13.58.45q6.9-2,12.25-10t5.79-25.84q0-16-5.12-24t-11.81-10.24a21.63,21.63,0,0,0-13.36-.22Q1176.86,212.69,1173.73,215.81Z"/><path class="cls-1" d="M1361.45,304.88h-30.73V229.17q0-10.69-6.46-15.59a23.38,23.38,0,0,0-14.47-4.9,22.44,22.44,0,0,0-14.25,4.9q-6.24,4.9-6.24,15.59v75.71h-31.17V235.4q0-30.27,15.81-40.52a69.07,69.07,0,0,1,35-11.14,89.79,89.79,0,0,1,20,2.23,42,42,0,0,1,17.82,8.91,39.37,39.37,0,0,1,15.81-8.25,88.56,88.56,0,0,1,18.93-2.89A67.1,67.1,0,0,1,1417.57,194q16.47,10.26,16.48,41.42v69.48h-15.59a14.49,14.49,0,0,1-15.14-15.14V229.17q0-10.69-6.46-15.59a23.83,23.83,0,0,0-28.95,0q-6.47,4.9-6.46,15.59v75.71Z"/><g id="Shape_3_copy_6" data-name="Shape 3 copy 6"><path class="cls-2" d="M37.58,299.15C23.72,245.94,98.31,214.8,98.31,214.8a135.45,135.45,0,0,1-9-18c-3.81-9.53-6.75-19.12-6.75-19.12l-6.74,2.25s-120.91,57-57.36,144c51,63.63,227.17,55.1,227.17,55.1S63.06,378.58,37.58,299.15ZM162.41,137.21s12.08-21.17,19.12-33.74S204,79.86,204,79.86s3.89-5.34,19.11-6.75C241.2,71.44,337.84,72,337.84,72s20.72,1.54,29.24,14.62c7.76,14.33,2.25,21.36,2.25,21.36L357,133.84s-26.42,50.23-33.74,57.35a41,41,0,0,1-13.49,9s-10,3.8-30.37,4.49-104.58-2.25-104.58-2.25l-27,47.24s-.45-.16,11.24,9,39.36,19.12,39.36,19.12,14.93,7.11,41.61,7.87S286.11,280,286.11,280s8.55.85,37.11-15.74c24.45-14.21,36-29.24,36-29.24s8.12-9.79,19.11-30.37,11.25-32.61,11.25-32.61,5.35-19.33,2.25-46.11-12.37-42.73-12.37-42.73-8.6-24.85-34.86-46.11S304.1,11.26,304.1,11.26,273.67-.46,243.38,0,193.9,9,193.9,9s-12.65,2.05-39.36,20.24-41.61,47.23-41.61,47.23-15.21,24.45-16.87,65.23,22.49,74.22,22.49,74.22ZM495.28,219.3c-2-23.21-13.5-36-13.5-36s-9.5-13.93-29.24-27A294.51,294.51,0,0,0,410.92,134s3,8.49.1,28.11-5.71,24.59-5.71,24.59,17.37,3.2,26.23,19.23,1.89,33.62,1.89,33.62l55.1,16.87S497.31,242.52,495.28,219.3Zm-140.57,54L357,280l30.36,11.24a106.68,106.68,0,0,1-22.49,10.13c-13.28,4.25-30.14,10-58.48,14.62a322.43,322.43,0,0,1-77.59,6.74c-27.79-1.11-54.45-6.32-72-9-34.25-5.24-86.59-30.37-86.59-30.37s53.63,47.89,144,64.1c29.75,4.94,61.49,7.22,96.71,3.38,38-3.36,89.22-15.76,126-41.61C463.86,292,466,287.9,466,287.9V276.66l-86.59-25.87ZM245.63,177.69H267s7.29,1,12.37-2.25a27.06,27.06,0,0,0,7.87-7.87l29.24-55.1,2.25-3.37v-5.63l-1.12-2.25-6.75-1.12H236.63l-7.87,3.37-5.63,7.88-30.36,55.1-1.12,1.12s-1.13,1.51-1.13,5.63,5.62,4.49,5.62,4.49Z"/></g><path class="cls-1" d="M607.55,97.15a42.61,42.61,0,0,1-8.87-.83,22.73,22.73,0,0,1-6.35-2.26V41.14Q598.1,38,607.21,38q11.7,0,17.81,7.69T631.12,67q0,14-5.85,22.07T607.55,97.15ZM607,42.9a18.72,18.72,0,0,0-7.1,1.17V90.63a19.78,19.78,0,0,0,7.19,1.09q8.52,0,12.29-6.14t3.76-18.69Q623.18,42.91,607,42.9Z"/><path class="cls-1" d="M642.36,42.56a4.38,4.38,0,0,1-3.1-1.17A3.75,3.75,0,0,1,638,38.55a3.88,3.88,0,0,1,1.25-2.93,4.42,4.42,0,0,1,3.1-1.17,4.31,4.31,0,0,1,3,1.17,3.88,3.88,0,0,1,1.25,2.93,3.75,3.75,0,0,1-1.25,2.84A4.26,4.26,0,0,1,642.36,42.56Zm-3.68,53.76V51.26H646V96.32Z"/><path class="cls-1" d="M663.26,97a24.4,24.4,0,0,1-6.65-.83,15,15,0,0,1-4.89-2.26l2-4.85A10.31,10.31,0,0,0,657.36,91a16.53,16.53,0,0,0,5.14.75,8.28,8.28,0,0,0,6-2.26,8.11,8.11,0,0,0,.59-10.74c-1.17-1.25-3.42-2.51-6.73-3.76a15.07,15.07,0,0,1-7.23-5.06,12.07,12.07,0,0,1-2.26-7.19,11.71,11.71,0,0,1,3.72-8.82,13.51,13.51,0,0,1,9.74-3.55,18.65,18.65,0,0,1,5.85.85,17.88,17.88,0,0,1,4.68,2.29L675,57.86a14.93,14.93,0,0,0-3.26-1.65,11.66,11.66,0,0,0-4.26-.77,7.35,7.35,0,0,0-5.56,2,7,7,0,0,0-2,5.05,6.39,6.39,0,0,0,1.92,4.84,21.46,21.46,0,0,0,6.86,3.71A15.72,15.72,0,0,1,676,76.17a12.45,12.45,0,0,1,2.39,7.63,12.22,12.22,0,0,1-4.23,9.26A15.35,15.35,0,0,1,663.26,97Z"/><path class="cls-1" d="M690.07,76.59q0,7.51,3.67,11.37t10,3.84a25.69,25.69,0,0,0,6.31-.67,18.46,18.46,0,0,0,4.81-1.92l1.92,4.85a21.55,21.55,0,0,1-5.72,2.21,32.13,32.13,0,0,1-7.9.88q-9.2,0-14.63-5.89t-5.43-17.6q0-11.2,5-17.22a16.24,16.24,0,0,1,13.17-6q8.26,0,12.7,5.48t4.44,16.59ZM701,55.19a9.49,9.49,0,0,0-8.19,4.3q-3,4.31-3,13.16l21.57-3.28q0-7.43-2.64-10.8C707,56.31,704.41,55.19,701,55.19Z"/><path class="cls-1" d="M749.91,96.32V63.55q0-4.26-2.42-6.32t-7-2a24.23,24.23,0,0,0-4.69.37,21.62,21.62,0,0,0-3.84,1.21V96.32h-7.36V53.6a29.83,29.83,0,0,1,7.27-2.38,48.72,48.72,0,0,1,9.37-.8q7.68,0,11.87,3.14t4.18,9.9V96.32Zm-3.4-51.17a4,4,0,0,1-1,.09,14.43,14.43,0,0,1-5.26-1.63A14.23,14.23,0,0,0,735,42a3.15,3.15,0,0,0-2.49,1.13A7.61,7.61,0,0,0,731,45.66l-2.17-3.35a8.53,8.53,0,0,1,2.2-3.3,5.92,5.92,0,0,1,4-1.21,12.59,12.59,0,0,1,5.39,1.63,12.23,12.23,0,0,0,4.8,1.63,4,4,0,0,0,3-1.09,7.29,7.29,0,0,0,1.66-2.59l2.34,3.34a7,7,0,0,1-2,3A7.07,7.07,0,0,1,746.51,45.15Z"/><path class="cls-1" d="M781.64,97.15q-8.77,0-13.21-6.43T764,73.83q0-10.62,4.39-17t13.16-6.4q9,0,13.3,6.35t4.34,17.06q0,10.53-4.38,16.93T781.64,97.15Zm0-42.05a8.06,8.06,0,0,0-8.07,5.27q-2.22,5.27-2.21,13.46T773.57,87q2.22,5,8.07,5t8-5q2.18-5.07,2.18-13.17,0-8.28-2.18-13.5A8,8,0,0,0,781.64,55.1Z"/><path class="cls-1" d="M862.49,68.23a3.78,3.78,0,0,1,1.72.56,1.85,1.85,0,0,1,.68,1,4,4,0,0,1,.12,1.32c0,.48,0,1,0,1.44a11.07,11.07,0,0,1-3,1.32,26.62,26.62,0,0,1-4,.8c-1.44.18-2.95.32-4.52.4s-3.13.14-4.67.2c-.27,1.49-.59,3.08-1,4.75A55.59,55.59,0,0,1,846,86.14a8.22,8.22,0,0,1-2.56,3.47,5.16,5.16,0,0,1-3,1,7.24,7.24,0,0,1-3.15-.76,23.14,23.14,0,0,1-3-1.72,12,12,0,0,1-.08-2.47c0-1,.13-2,.24-3.08s.25-2.18.44-3.28.36-2.17.52-3.23c-1.71.26-3.08.5-4.12.72a16.57,16.57,0,0,0-2.2.55,5.73,5.73,0,0,1-2.39-.55,4.8,4.8,0,0,1-1.44-1.16,7.58,7.58,0,0,1-1-1.56c-.27-.59-.59-1.2-1-1.84a3.13,3.13,0,0,0,.12-1.84,3,3,0,0,0-.92-1.84c.43,0,.75-.36,1-.92a1.27,1.27,0,0,0,0-1.24,18.53,18.53,0,0,1,2.76-.44l2.91-.2a24.73,24.73,0,0,0,2.72-.28,7.55,7.55,0,0,0,2.24-.67c.75,0,1.45,0,2.12,0s1.37,0,2.12,0a2.78,2.78,0,0,0-.08-1.76,1.81,1.81,0,0,1-.16-1.28.82.82,0,0,1,.6-.52.66.66,0,0,0,.52-.52A3.21,3.21,0,0,0,839.4,59a2.29,2.29,0,0,1,.32-1.56c.26-.42.62-1.09,1.07-2a5,5,0,0,0,.52-2.87,9.51,9.51,0,0,0,1.48-1.28A12.8,12.8,0,0,1,844.23,50a8.93,8.93,0,0,1,1.68-1,5.29,5.29,0,0,1,2.28-.44,6.87,6.87,0,0,1,1,1.68c.21.53.42,1,.64,1.52a5.88,5.88,0,0,0,.84,1.36,5.21,5.21,0,0,0,1.55,1.2A8,8,0,0,1,852,56c-.16.7-.29,1.39-.4,2.08a7.9,7.9,0,0,0-.08,1.84,1.3,1.3,0,0,0,.8,1.12c-.21.59-.41,1.16-.6,1.72s-.36,1.1-.52,1.64a20.15,20.15,0,0,0,3.12.27,23.93,23.93,0,0,1,3.36.32,10.44,10.44,0,0,1,2.92,1A3.88,3.88,0,0,1,862.49,68.23Z"/><path class="cls-1" d="M890,96.22V38.79h7.68V91.13h17.28v5.09Z"/><path class="cls-1" d="M939.37,97.05q-8.76,0-13.18-6.42t-4.43-16.87q0-10.59,4.38-17t13.15-6.39q8.94,0,13.27,6.35t4.34,17q0,10.53-4.38,16.91T939.37,97.05Zm0-42a8,8,0,0,0-8,5.25q-2.22,5.26-2.21,13.44T931.32,87q2.2,5,8,5t8-5q2.16-5,2.17-13.15,0-8.26-2.17-13.48T939.37,55.07Z"/><path class="cls-1" d="M981.81,115.08a36.41,36.41,0,0,1-7.95-.79,19.32,19.32,0,0,1-6-2.29l2.26-4.93a21.55,21.55,0,0,0,4.74,1.88,20.91,20.91,0,0,0,5.67.79q5.82,0,8.61-3.21A12.6,12.6,0,0,0,992,98V94.8q-3.26,1.92-9,1.92a15.69,15.69,0,0,1-12.9-6q-4.8-6-4.8-16.23,0-11.1,5.22-17.62t15.23-6.51a30.39,30.39,0,0,1,7.81.88,20.07,20.07,0,0,1,5.55,2.29V97.14q0,8.43-4.58,13.19T981.81,115.08Zm10.15-59a9.8,9.8,0,0,0-2.86-.92,19.52,19.52,0,0,0-3.54-.33q-6.64,0-9.81,5.09T972.6,74.27q0,8.92,2.95,13.52t9.35,4.59a14.55,14.55,0,0,0,3.82-.5A13.25,13.25,0,0,0,992,90.54Z"/><path class="cls-1" d="M1014.92,46.3h-4.18l5.85-11.44a9.25,9.25,0,0,1,4.84-1.41q2.51,0,3,1.5Zm-3.51,49.92v-45h7.35v45Z"/><path class="cls-1" d="M1039.79,96.89a24.24,24.24,0,0,1-6.63-.84,14.78,14.78,0,0,1-4.89-2.25l2-4.84a10.32,10.32,0,0,0,3.63,1.92,16.46,16.46,0,0,0,5.13.75,8.27,8.27,0,0,0,6-2.26,8.09,8.09,0,0,0,.59-10.72c-1.17-1.25-3.41-2.51-6.72-3.76a15,15,0,0,1-7.22-5,12,12,0,0,1-2.26-7.18,11.66,11.66,0,0,1,3.72-8.8,13.47,13.47,0,0,1,9.72-3.55,18.65,18.65,0,0,1,5.85.85,18,18,0,0,1,4.67,2.29l-1.92,4.37a14.7,14.7,0,0,0-3.26-1.65,11.78,11.78,0,0,0-4.25-.77,7.32,7.32,0,0,0-5.55,2,7,7,0,0,0-2,5,6.36,6.36,0,0,0,1.92,4.83c1.28,1.23,3.57,2.46,6.85,3.71a15.73,15.73,0,0,1,7.3,5.08,12.42,12.42,0,0,1,2.38,7.62,12.21,12.21,0,0,1-4.21,9.25A15.38,15.38,0,0,1,1039.79,96.89Z"/><path class="cls-1" d="M1078.44,96.55c-3.78,0-6.59-1.09-8.43-3.29a12.07,12.07,0,0,1-2.75-8V55.82h-5.18V51.23h5.18V40.86l7.34-2.26V51.23h7.85v4.59h-7.85V85a7.5,7.5,0,0,0,1.38,4.7,5.09,5.09,0,0,0,4.3,1.78,20,20,0,0,0,2.17-.17V96c-.61.14-1.23.28-1.84.4A11.36,11.36,0,0,1,1078.44,96.55Z"/><path class="cls-1" d="M1095.72,42.54a4.36,4.36,0,0,1-3.09-1.16,3.76,3.76,0,0,1-1.25-2.84,3.84,3.84,0,0,1,1.25-2.92,4.37,4.37,0,0,1,3.09-1.17,4.26,4.26,0,0,1,3,1.17,3.84,3.84,0,0,1,1.25,2.92,3.76,3.76,0,0,1-1.25,2.84A4.26,4.26,0,0,1,1095.72,42.54Zm-3.67,53.68v-45h7.34v45Z"/><path class="cls-1" d="M1126.94,97.05a14.68,14.68,0,0,1-12.31-6.3q-4.73-6.3-4.72-17.07,0-10.94,4.72-17.11a14.92,14.92,0,0,1,12.48-6.18,17.74,17.74,0,0,1,6.17.88A11.86,11.86,0,0,1,1137,53.4l-1.75,4.25a14.18,14.18,0,0,0-2.84-1.5,10.36,10.36,0,0,0-3.84-.67q-5.92,0-8.64,4.76t-2.71,13.19q0,8.17,2.88,13.19t8.22,5a11.25,11.25,0,0,0,3.76-.54,14.47,14.47,0,0,0,3.09-1.63l1.83,4.59a10.59,10.59,0,0,1-4,2.17A20.08,20.08,0,0,1,1126.94,97.05Z"/><path class="cls-1" d="M1160.83,97.05q-8.6,0-12.85-3.46t-4.26-9.81q0-8.27,6.59-11.94t18.54-4.92V64.16q0-4.92-2.63-6.92a11.8,11.8,0,0,0-7.31-2,19.89,19.89,0,0,0-5.68.8,32.29,32.29,0,0,0-5.17,2l-1.75-4.34a29.95,29.95,0,0,1,13.77-3.34q6.93,0,11.31,3.47T1175.77,65V93.88a25.07,25.07,0,0,1-6.42,2.34A39.17,39.17,0,0,1,1160.83,97.05Zm8-26.37c-6.24.78-10.81,2.07-13.74,3.88s-4.38,4.83-4.38,9q0,4.68,2.76,6.93c1.83,1.51,4.48,2.26,7.93,2.26a15.49,15.49,0,0,0,7.43-1.51Z"/></g></g></svg>