<svg xmlns="http://www.w3.org/2000/svg" viewBox="0 0 348.67 69.34"><defs><style>.cls-1{fill:#0059a6;}</style></defs><title>logo-progestion</title><g id="Capa_2" data-name="Capa 2"><g id="Capa_1-2" data-name="Capa 1"><path class="cls-1" d="M80,15.71h5.92v4A11.8,11.8,0,0,1,95.58,15c8.56,0,14.65,6.54,14.65,15.67,0,9.31-5.69,15.8-14.24,15.8a11.73,11.73,0,0,1-9.71-4.71v14.7H80ZM95,40.87c5.22,0,8.9-4.2,8.9-10.23s-3.85-10.1-9-10.1c-5.51,0-8.9,4.59-8.9,10.1C86.05,37.13,90,40.87,95,40.87Z"/><path class="cls-1" d="M129.85,21.28c-6.55,0-8.44,5-8.44,11.49V45.69h-6.26v-30h6.14v4.71A9,9,0,0,1,129.85,15Z"/><path class="cls-1" d="M147.15,15c9.25,0,15.91,6.72,15.91,15.73s-6.78,15.74-15.91,15.74S131.3,39.83,131.3,30.76A15.45,15.45,0,0,1,147.15,15Zm0,25.9c5.57,0,9.65-4.31,9.65-10.17s-4.08-10.16-9.65-10.16-9.53,4.36-9.53,10.22S141.58,40.87,147.15,40.87Z"/><path class="cls-1" d="M172,49a18.89,18.89,0,0,0,8.78,2.3c5,0,9.42-1.84,9.42-7.53v-2a11.59,11.59,0,0,1-9.59,4.66c-8.61,0-14.36-6.49-14.36-15.68S172.2,15,180.7,15a11.86,11.86,0,0,1,9.76,4.76v-4h5.91v26c0,11.25-6.83,15-15.56,15A22.94,22.94,0,0,1,170,53.84Zm9.41-28.48c-5.16,0-8.9,4.13-8.9,10.16s3.85,10.17,9,10.17c5.4,0,8.9-4.25,8.9-10.17C190.34,24.56,186.55,20.54,181.38,20.54Z"/><path class="cls-1" d="M215.75,15c9.07,0,14.41,6.26,14.41,15.67,0,.52,0,1,0,1.55H207.54c.11,5.34,4,8.79,9.3,8.79a9.79,9.79,0,0,0,8.27-4.19l4.14,3.1c-1.44,2.47-5.4,6.55-12.52,6.55-9.36,0-15.57-6.55-15.57-15.62C201.16,21.51,207.54,15,215.75,15Zm8,12.92a7.62,7.62,0,0,0-8-7.7c-4.31,0-7.64,3-8,7.7Z"/><path class="cls-1" d="M236.36,37.36a8.19,8.19,0,0,0,7.18,3.91c2.64,0,4.6-1.32,4.6-3.74,0-5.74-14.59-3.67-14.59-14.06,0-5.29,4.48-8.5,10.28-8.5a10.48,10.48,0,0,1,9.76,5.57l-4.31,2.87a6.45,6.45,0,0,0-5.8-3.33c-2.29,0-4,1.2-4,3.27,0,5.74,14.65,3.33,14.65,13.9,0,5.57-4.71,9.19-10.85,9.19s-9.31-3.28-10.8-6Z"/><path class="cls-1" d="M259.56,9.45h6.2v6.26h6.09v5.17h-6.09v14c0,4.65,1.78,5.68,5.11,5.68.52,0,1.21-.06,1.21-.06v5.4a16.28,16.28,0,0,1-3,.23c-7.3,0-9.48-4.88-9.48-12.23v-13h-3.33V15.71h3.33Z"/><path class="cls-1" d="M279.32,4.4a3.91,3.91,0,1,1-3.91,3.91A3.87,3.87,0,0,1,279.32,4.4Zm-3.1,11.31h6.26v30h-6.26Z"/><path class="cls-1" d="M302.93,15c9.25,0,15.91,6.72,15.91,15.73s-6.78,15.74-15.91,15.74-15.85-6.61-15.85-15.68A15.45,15.45,0,0,1,302.93,15Zm0,25.9c5.57,0,9.65-4.31,9.65-10.17s-4.08-10.16-9.65-10.16-9.53,4.36-9.53,10.22S297.36,40.87,302.93,40.87Z"/><path class="cls-1" d="M348.67,27.66v18h-6.21V27.14c0-4.13-2.58-6.55-6-6.55-4,0-6.55,2.93-6.55,7V45.69h-6.26v-30h6.14v3.91A9.76,9.76,0,0,1,338.21,15C346,15,348.67,21.11,348.67,27.66Z"/><path class="cls-1" d="M33,40.82H22.4L7.05,56.28h0V0H32.94C45.68,0,53.21,7.9,53.21,20.28,53.21,32.48,45.23,40.82,33,40.82ZM22.4,13.19V27.63h8.29c4.49,0,6.82-3.05,6.82-7.35s-2.42-7.09-6.64-7.09Z"/><circle class="cls-1" cx="5.09" cy="64.25" r="5.09"/></g></g></svg>