<svg xmlns="http://www.w3.org/2000/svg" viewBox="0 0 331.25 64.52"><defs><style>.cls-1,.cls-2{fill:#ff6c0e;}.cls-2{stroke:#ff6c0e;stroke-miterlimit:10;stroke-width:0.25px;}</style></defs><title>logo-disecom</title><g id="Capa_2" data-name="Capa 2"><g id="Capa_1-2" data-name="Capa 1"><circle class="cls-1" cx="57.23" cy="8.07" r="5.92"/><path class="cls-2" d="M51.31,32.26A32.12,32.12,0,0,0,19.24.13H.13V64.4h19.1A32.15,32.15,0,0,0,51.31,32.26Z"/><path class="cls-2" d="M120.12,56.11H113.2V51.54A14.05,14.05,0,0,1,101.91,57c-10,0-17.13-7.59-17.13-18.34s6.65-18.47,16.66-18.47a13.55,13.55,0,0,1,11.36,5.58V7.54h7.32ZM102.59,26.69c-6.12,0-10.42,5-10.42,12s4.5,11.82,10.48,11.82c6.45,0,10.41-5.37,10.41-11.82C113.06,31.05,108.43,26.69,102.59,26.69Z"/><path class="cls-2" d="M131.54,7.81A4.57,4.57,0,1,1,127,12.38,4.53,4.53,0,0,1,131.54,7.81ZM127.91,21h7.32V56.11h-7.32Z"/><path class="cls-2" d="M144.87,46.37a9.56,9.56,0,0,0,8.39,4.57c3.09,0,5.38-1.55,5.38-4.37,0-6.72-17.07-4.3-17.07-16.46,0-6.18,5.24-9.94,12-9.94,6.58,0,10.07,3.83,11.42,6.52L160,30a7.57,7.57,0,0,0-6.79-3.89c-2.68,0-4.7,1.41-4.7,3.83,0,6.71,17.13,3.89,17.13,16.25,0,6.52-5.51,10.75-12.69,10.75S142,53.15,140.3,50Z"/><path class="cls-2" d="M185.85,20.17c10.61,0,16.86,7.32,16.86,18.34a15.65,15.65,0,0,1-.07,1.81h-26.4c.13,6.25,4.63,10.28,10.88,10.28a11.44,11.44,0,0,0,9.67-4.9l4.84,3.62C200,52.21,195.32,57,187,57c-11,0-18.21-7.66-18.21-18.27C168.78,27.83,176.24,20.17,185.85,20.17Zm9.4,15.11c-.27-5.77-4.3-9-9.34-9s-8.93,3.5-9.4,9Z"/><path class="cls-2" d="M234.05,30.65a13.53,13.53,0,0,0-9.27-3.83c-6.65,0-11.08,5.11-11.08,11.76s4.84,11.89,11.35,11.89a13.7,13.7,0,0,0,9.14-3.9l2.08,6A17.71,17.71,0,0,1,224.65,57c-10.68,0-18.34-7.86-18.34-18.4a18,18,0,0,1,18.27-18.41,17.63,17.63,0,0,1,11.69,4.3Z"/><path class="cls-2" d="M257.41,20.17c10.81,0,18.6,7.86,18.6,18.41S268.09,57,257.41,57s-18.54-7.72-18.54-18.34A18.06,18.06,0,0,1,257.41,20.17Zm0,30.3c6.51,0,11.28-5,11.28-11.89s-4.77-11.89-11.28-11.89-11.16,5.1-11.16,12S250.89,50.47,257.41,50.47Z"/><path class="cls-2" d="M331.13,56.11h-7.26v-21c0-5.44-2.35-8.33-6.72-8.33-4.1,0-7.12,3-7.12,8.4v21h-7.32V34.41c0-4.77-2.55-7.66-6.72-7.66-4,0-7.05,3.23-7.05,8.26v21.1h-7.32V21h7.19v4.57a10.41,10.41,0,0,1,9.47-5.44c4.9,0,8.39,2.28,10.07,5.84,2.09-3.69,6-5.84,10.82-5.84,7.92,0,12,5.44,12,13Z"/></g></g></svg>