<svg xmlns="http://www.w3.org/2000/svg" viewBox="0 0 1897 515.57"><defs><style>.cls-1{fill:#fff;}</style></defs><title>logo-crece-white</title><g id="Capa_2" data-name="Capa 2"><g id="Capa_1-2" data-name="Capa 1"><path class="cls-1" d="M895.23,212c-12.36-11.84-37.09-29.35-71.09-29.35-51,0-85,39.15-85,90.14,0,51.52,37.09,91.19,87.06,91.19,34.51,0,58.73-19.58,70.06-29.88l16,46.36a135.55,135.55,0,0,1-89.12,33.48c-81.91,0-140.64-60.26-140.64-141.15,0-80.36,60.28-141.14,140.13-141.14,44.3,0,74.18,19.57,89.63,33Z"/><path class="cls-1" d="M1085,188.28c-58.73,0-75.73,44.82-75.73,103V407.22H953.16V138.31h55.12v42.24c10.3-26.79,38.63-48.93,76.76-48.93Z"/><path class="cls-1" d="M1230,131.62c81.39,0,129.3,56.14,129.3,140.63a124.48,124.48,0,0,1-.52,13.91H1156.37c1,47.91,35.54,78.82,83.45,78.82,40.7,0,63.88-22.68,74.18-37.62l37.09,27.82c-12.87,22.15-48.42,58.73-112.3,58.73-84,0-139.6-58.73-139.6-140.12C1099.19,190.34,1156.37,131.62,1230,131.62Zm72.11,115.9c-2.06-44.31-33-69-71.6-69s-68.51,26.78-72.13,69Z"/><path class="cls-1" d="M1599.74,212c-12.37-11.84-37.1-29.35-71.1-29.35-51,0-85,39.15-85,90.14,0,51.52,37.09,91.19,87.06,91.19,34.52,0,58.73-19.58,70.06-29.88l16,46.36a135.5,135.5,0,0,1-89.12,33.48c-81.91,0-140.63-60.26-140.63-141.15,0-80.36,60.27-141.14,140.12-141.14,44.3,0,74.18,19.57,89.63,33Z"/><path class="cls-1" d="M1767.7,131.62c81.39,0,129.3,56.14,129.3,140.63a124.48,124.48,0,0,1-.52,13.91H1694c1,47.91,35.54,78.82,83.46,78.82,40.69,0,63.88-22.68,74.17-37.62l37.1,27.82c-12.88,22.15-48.43,58.73-112.31,58.73-84,0-139.6-58.73-139.6-140.12C1636.85,190.34,1694,131.62,1767.7,131.62Zm72.12,115.9c-2.07-44.31-33-69-71.61-69s-68.51,26.78-72.12,69Z"/><path class="cls-1" d="M48.59,159.75c71.49,9,101.57,37.33,108.33,55.65,4.54,19.22,4.77,105.76,2.44,182.73-33.73-24.72-77.18-39.46-110.77-47.89V159.75m359.52.5V346.62c-32.72,7.74-75.66,23.57-111.31,55.87-1.92-79.5-1-169,4.13-190.54.89-3.76,9.48-17.51,36.36-31,19.7-9.86,44-16.9,70.82-20.74m48.59-51.94c-116.4,0-192.31,47.12-203,92.44-10.09,42.59-5.05,217.05-5.05,217.05s1,24.29-20.17,24.29S207.3,418.4,207.3,418.4s6.8-186.16-4.22-218.18c-15.82-46-78.18-91.91-203.08-91.91V373.56a19.4,19.4,0,0,0,15.62,19.06c30.73,6.12,98.93,23.26,131.8,59.59,40.14,44.37,32.24,63.36,80.93,63.36,42.72,0,45.15-12.75,87-62.55,37.76-44.87,96.44-58.89,124.82-63.17a19.37,19.37,0,0,0,16.48-19.2V108.31Z"/><circle class="cls-1" cx="228.43" cy="55.83" r="55.83"/></g></g></svg>