<svg xmlns="http://www.w3.org/2000/svg" viewBox="0 0 324.12 68.31"><defs><style>.cls-1{fill:#ea0029;}</style></defs><title>logo-audisis</title><g id="Capa_2" data-name="Capa 2"><g id="Capa_1-2" data-name="Capa 1"><path class="cls-1" d="M105,33.44c4.87,0,8.52,1.62,10.14,3.08v-4c0-4.87-3.41-7.79-9-7.79a24.44,24.44,0,0,0-11.84,3.33l-3.41-6.17A30.31,30.31,0,0,1,107,17.06c12.57,0,16.86,6.81,16.86,16.05V60.44h-7.7l-.73-3.16c-2.19,2.43-5.59,4.21-10.86,4.21-8.92,0-16-5.59-16-14.11C88.61,39.2,95.26,33.44,105,33.44Zm1.46,21c5.19,0,8.92-2.92,8.92-7.3s-3.65-7.3-9-7.3-8.92,3.08-8.92,7.3S101.1,54.44,106.45,54.44Z"/><path class="cls-1" d="M132.37,43.57V18.11h8.76V44.3c0,5.84,3.64,9.25,8.51,9.25,5.59,0,9.24-4.06,9.24-9.9V18.11h8.84V60.44H159V54.92a13.59,13.59,0,0,1-11.91,6.57C136.18,61.49,132.37,52.82,132.37,43.57Z"/><path class="cls-1" d="M217.24,60.44h-8.35V54.92a17,17,0,0,1-13.62,6.57c-12.08,0-20.68-9.16-20.68-22.13s8-22.3,20.11-22.3c8,0,12.57,4.86,13.7,6.73v-22h8.84ZM196.08,24.92c-7.38,0-12.57,6-12.57,14.52,0,8.67,5.43,14.27,12.65,14.27,7.78,0,12.57-6.49,12.57-14.27C208.73,30.19,203.13,24.92,196.08,24.92Z"/><path class="cls-1" d="M231,2.14a5.46,5.46,0,0,1,5.51,5.51,5.52,5.52,0,1,1-11,0A5.47,5.47,0,0,1,231,2.14Zm-4.38,16h8.84V60.44h-8.84Z"/><path class="cls-1" d="M247.11,48.68a11.53,11.53,0,0,0,10.13,5.51c3.73,0,6.49-1.86,6.49-5.27,0-8.1-20.59-5.18-20.59-19.86,0-7.46,6.32-12,14.51-12,8,0,12.16,4.62,13.78,7.86L265.35,29a9.1,9.1,0,0,0-8.19-4.7c-3.24,0-5.67,1.7-5.67,4.62,0,8.11,20.67,4.7,20.67,19.62,0,7.86-6.65,13-15.32,13s-13.14-4.62-15.24-8.43Z"/><path class="cls-1" d="M283,2.14a5.47,5.47,0,0,1,5.52,5.51,5.52,5.52,0,1,1-11,0A5.46,5.46,0,0,1,283,2.14Zm-4.37,16h8.83V60.44h-8.83Z"/><path class="cls-1" d="M299.07,48.68a11.52,11.52,0,0,0,10.13,5.51c3.73,0,6.49-1.86,6.49-5.27,0-8.1-20.59-5.18-20.59-19.86,0-7.46,6.32-12,14.51-12,7.94,0,12.16,4.62,13.78,7.86L317.31,29a9.11,9.11,0,0,0-8.19-4.7c-3.24,0-5.67,1.7-5.67,4.62,0,8.11,20.67,4.7,20.67,19.62,0,7.86-6.65,13-15.32,13s-13.14-4.62-15.24-8.43Z"/><path class="cls-1" d="M56.48,27.39,29.21,3.94C18.43-5.34.37,2.87.27,17.1L0,52C-.1,64.35,13.13,72,25.12,66.52l.12,0,.06,0a9.4,9.4,0,0,0,4.88-5.28c1.2-3.72,5.19-5.46,5.19-5.46a9.71,9.71,0,0,1,7.5-.36,9.71,9.71,0,0,0,7.1-.11l.15-.07,1-.44C62.61,49.48,65.46,35.1,56.48,27.39ZM46.2,46.71l-.05,0a8.77,8.77,0,0,1-7,.18c-3.63-1.74-7.48.09-7.48.09a9.06,9.06,0,0,0-5.28,5.4A9.53,9.53,0,0,1,21.43,58l-.05,0h0C15.6,60.61,9.24,56.94,9.29,51l.25-32.39C9.59,11.4,18.79,7.22,24.29,12L48.85,33.06C53.32,36.89,51.91,44.07,46.2,46.71Z"/><circle class="cls-1" cx="25.34" cy="32.29" r="6.75"/></g></g></svg>