<svg xmlns="http://www.w3.org/2000/svg" viewBox="0 0 154.53 39.18"><defs><style>.cls-1{fill:#007241;}</style></defs><title>logo-ensti</title><g id="Capa_2" data-name="Capa 2"><g id="Capa_1-2" data-name="Capa 1"><path class="cls-1" d="M67.77,9.1c7.81,0,12.41,5.39,12.41,13.49a12,12,0,0,1-.05,1.34H60.7c.1,4.6,3.41,7.56,8,7.56a8.4,8.4,0,0,0,7.12-3.61l3.56,2.67a12.22,12.22,0,0,1-10.78,5.64c-8.06,0-13.4-5.64-13.4-13.45C55.21,14.73,60.7,9.1,67.77,9.1Zm6.92,11.12a6.55,6.55,0,0,0-6.87-6.62,6.8,6.8,0,0,0-6.92,6.62Z"/><path class="cls-1" d="M106.08,20V35.55h-5.33v-16c0-3.56-2.23-5.64-5.2-5.64-3.41,0-5.63,2.52-5.63,6V35.55H84.53V9.74h5.29V13.1a8.4,8.4,0,0,1,7.27-4C103.76,9.1,106.08,14.39,106.08,20Z"/><path class="cls-1" d="M113.45,28.38a7,7,0,0,0,6.18,3.36c2.27,0,4-1.14,4-3.21,0-5-12.56-3.17-12.56-12.12,0-4.54,3.85-7.31,8.85-7.31a9,9,0,0,1,8.4,4.79l-3.71,2.47a5.56,5.56,0,0,0-5-2.86c-2,0-3.46,1-3.46,2.82,0,4.94,12.61,2.86,12.61,12,0,4.8-4.06,7.91-9.35,7.91a10,10,0,0,1-9.29-5.14Z"/><path class="cls-1" d="M133.42,4.35h5.34V9.74H144v4.45h-5.24v12c0,4,1.53,4.9,4.4,4.9.45,0,1-.05,1-.05V35.7a14.63,14.63,0,0,1-2.62.19c-6.28,0-8.16-4.2-8.16-10.53V14.19h-2.87V9.74h2.87Z"/><path class="cls-1" d="M151.17,0a3.33,3.33,0,0,1,3.36,3.36,3.36,3.36,0,0,1-6.72,0A3.33,3.33,0,0,1,151.17,0ZM148.5,9.74h5.39V35.55H148.5Z"/><path class="cls-1" d="M26.71,35a18.57,18.57,0,0,1-8.37,2,18.38,18.38,0,0,1-9-2.31c-1.47,2.21-8,4.34-8.42,4.47,3.12-1.41,2.58-9.24,2.55-9.6h0A17.64,17.64,0,0,1,0,19a18.16,18.16,0,0,1,18.34-18A19.47,19.47,0,0,1,22,1.4,19.31,19.31,0,0,0,13.7,5.85c-6.59,5.66-9,15.23-3.91,22.7A16.11,16.11,0,0,0,26.71,35Z"/><path class="cls-1" d="M14.57,18.21c4.69.1,10.76-2.74,11.83-7.82.67-3.2-3-2.71-4.89-1.8a15.38,15.38,0,0,0-5.37,4.3,11.14,11.14,0,0,0-2.34,5.39A3.8,3.8,0,0,1,14.57,18.21Z"/><path class="cls-1" d="M15.37,24.89c.21.3.43.59.67.88,3.34,3.85,8.86,3.81,12.84,1.05,2.18-1.53,4.29.11,4.76,2.15a17.69,17.69,0,0,0-.53-20.6,8.78,8.78,0,0,1,.1,1.55C32.91,18.67,23.38,24.66,15.37,24.89Z"/><circle class="cls-1" cx="39.44" cy="32.14" r="3.16"/></g></g></svg>