<svg xmlns="http://www.w3.org/2000/svg" viewBox="0 0 598.75 347.98"><defs><style>.cls-1{fill:#000f9f;}</style></defs><title>icon-trabaja-con-nosotros</title><g id="Capa_2" data-name="Capa 2"><g id="Capa_2-2" data-name="Capa 2"><path class="cls-1" d="M299.38,178a89,89,0,1,1,89-89A89.08,89.08,0,0,1,299.38,178Zm0-162a73,73,0,1,0,73,73A73.06,73.06,0,0,0,299.38,16Z"/><path class="cls-1" d="M493.63,226.48a72.75,72.75,0,1,1,72.75-72.75A72.83,72.83,0,0,1,493.63,226.48Zm0-129.5a56.75,56.75,0,1,0,56.75,56.75A56.81,56.81,0,0,0,493.63,97Z"/><path class="cls-1" d="M105.17,226.48a72.75,72.75,0,1,1,72.75-72.75A72.83,72.83,0,0,1,105.17,226.48Zm0-129.5a56.75,56.75,0,1,0,56.75,56.75A56.82,56.82,0,0,0,105.17,97Z"/><path class="cls-1" d="M436.88,348h-16c0-63.06-15.82-92.82-29.09-106.69C378.07,227,364.6,226.49,364,226.48l.09-16c.79,0,19.71.21,38,18.53C425.19,252.05,436.88,292.07,436.88,348Z"/><path class="cls-1" d="M177.91,348h-16c0-55.91,11.68-95.93,34.71-119,18.32-18.32,37.24-18.53,38-18.53v8l.08,8c-.56,0-14,.48-27.75,14.81C193.72,255.16,177.91,284.92,177.91,348Z"/><path class="cls-1" d="M598.75,324h-16c0-58.33-27-73.84-28.14-74.47l7.45-14.16C563.55,236.14,598.75,255.17,598.75,324Z"/><path class="cls-1" d="M16,324H0c0-68.82,35.2-87.85,36.69-88.63l7.37,14.21-3.68-7.11,3.76,7.06C43,250.15,16,265.66,16,324Z"/></g></g></svg>