<svg xmlns="http://www.w3.org/2000/svg" viewBox="0 0 987.53 545.45"><defs><style>.cls-1{fill:#000f9f;}.cls-2{fill:none;}</style></defs><title>icon-trabaja-con-nosotros</title><g id="Capa_2" data-name="Capa 2"><g id="Capa_2-2" data-name="Capa 2"><path class="cls-1" d="M493.76,266.73A101.12,101.12,0,1,1,594.88,165.62,101.23,101.23,0,0,1,493.76,266.73Zm0-184a82.94,82.94,0,1,0,82.93,82.94A83,83,0,0,0,493.76,82.68Z"/><path class="cls-1" d="M714.5,321.86a82.67,82.67,0,1,1,82.67-82.67A82.76,82.76,0,0,1,714.5,321.86Zm0-147.15A64.49,64.49,0,1,0,779,239.19,64.56,64.56,0,0,0,714.5,174.71Z"/><path class="cls-1" d="M273.07,321.86a82.67,82.67,0,1,1,82.67-82.67A82.76,82.76,0,0,1,273.07,321.86Zm0-147.15a64.49,64.49,0,1,0,64.49,64.48A64.56,64.56,0,0,0,273.07,174.71Z"/><path class="cls-1" d="M650,459.93H631.83c0-71.65-18-105.48-33.05-121.24-15.59-16.28-30.89-16.81-31.54-16.83l.1-18.18c.91,0,22.4.24,43.22,21.06C636.74,350.92,650,396.4,650,459.93Z"/><path class="cls-1" d="M355.73,459.93H337.55c0-63.53,13.27-109,39.45-135.19,20.82-20.82,42.32-21.06,43.22-21.06v9.09l.1,9.09c-.64,0-15.95.55-31.54,16.83C373.71,354.45,355.73,388.28,355.73,459.93Z"/><path class="cls-1" d="M834,432.68H815.78c0-66.29-30.67-83.91-32-84.63L792.26,332C794,332.84,834,354.47,834,432.68Z"/><path class="cls-1" d="M865.68,285.51a56.8,56.8,0,1,1,56.8-56.8A56.86,56.86,0,0,1,865.68,285.51Zm0-101.1A44.31,44.31,0,1,0,910,228.71,44.35,44.35,0,0,0,865.68,184.41Z"/><path class="cls-1" d="M947.75,361.64H935.26c0-45.54-21.07-57.65-22-58.14l5.82-11.06C920.27,293.05,947.75,307.91,947.75,361.64Z"/><path class="cls-1" d="M65.05,228.71a56.8,56.8,0,1,1,56.8,56.8A56.86,56.86,0,0,1,65.05,228.71Zm12.49,0a44.31,44.31,0,1,0,44.31-44.3A44.36,44.36,0,0,0,77.54,228.71Z"/><path class="cls-1" d="M39.77,361.64h12.5c0-45.54,21.07-57.65,22-58.14l-5.82-11.06C67.25,293.05,39.77,307.91,39.77,361.64Z"/><path class="cls-1" d="M171.75,432.68H153.57c0-78.21,40-99.84,41.69-100.72l8.37,16.14L199.45,340l4.28,8C202.42,348.77,171.75,366.39,171.75,432.68Z"/><rect class="cls-2" width="987.53" height="545.45"/></g></g></svg>