<svg xmlns="http://www.w3.org/2000/svg" viewBox="0 0 987.53 545.45"><defs><style>.cls-1{fill:#dbdbdb;}.cls-2{fill:#000f9f;}.cls-3{fill:none;}</style></defs><title>icon-sucursales</title><g id="Capa_2" data-name="Capa 2"><g id="Capa_2-2" data-name="Capa 2"><ellipse class="cls-1" cx="537.38" cy="500.33" rx="59" ry="9.3"/><ellipse class="cls-1" cx="276.76" cy="319.97" rx="59" ry="9.3"/><ellipse class="cls-1" cx="752.95" cy="224.98" rx="59" ry="9.3"/><path class="cls-2" d="M537.38,78.35A128.72,128.72,0,0,0,417,252.47h-.45l3.89,8.22c.41.89.83,1.77,1.25,2.63l115.7,244,116-244.49,6.14-13h-.74A127.84,127.84,0,0,0,666.05,207C666.05,136.07,608.33,78.35,537.38,78.35ZM436.29,256.91A111.67,111.67,0,0,1,424.66,207a112.72,112.72,0,0,1,225.44,0,111.71,111.71,0,0,1-10.45,47.46l-.45,1L537.38,470.13,441.74,268.41H442Z"/><path class="cls-2" d="M537.38,270.51A63.5,63.5,0,1,0,473.89,207,63.57,63.57,0,0,0,537.38,270.51Zm0-111.06A47.56,47.56,0,1,1,489.83,207,47.61,47.61,0,0,1,537.38,159.45Z"/><path class="cls-2" d="M276.76,10.21A95.07,95.07,0,0,0,187.45,137.7H187l3.39,7.15c.3.66.61,1.31.92,1.94L276.76,327l85.61-180.53,5-10.65h-.68a95.07,95.07,0,0,0-90-125.58ZM350.9,139.62,276.76,296,208,151h.2l-4.74-9.58A81,81,0,0,1,195,105.21a81.73,81.73,0,0,1,163.45,0A81,81,0,0,1,350.9,139.62Z"/><path class="cls-2" d="M276.76,57.92a47.3,47.3,0,1,0,47.29,47.29A47.35,47.35,0,0,0,276.76,57.92Zm34,47.29a34,34,0,1,1-34-34A34.05,34.05,0,0,1,310.77,105.21Z"/><path class="cls-2" d="M814.77,88.84a61.83,61.83,0,1,0-120.68,19h-.56l3.22,6.8.59,1.25L753,233.15l55.72-117.49,4.27-9h-.76A61.73,61.73,0,0,0,814.77,88.84ZM753,206l-41.06-86.59h.17l-4.14-8.39h0a49.61,49.61,0,0,1-5.18-22.22A50.21,50.21,0,1,1,798.51,110Z"/><path class="cls-2" d="M753,57.26a31.58,31.58,0,1,0,31.58,31.58A31.61,31.61,0,0,0,753,57.26Zm0,51.54a20,20,0,1,1,20-20A20,20,0,0,1,753,108.8Z"/><rect class="cls-3" width="987.53" height="545.45"/></g></g></svg>