<svg xmlns="http://www.w3.org/2000/svg" viewBox="0 0 601.44 606.38"><defs><style>.cls-1{fill:#dbdbdb;}.cls-2{fill:#000f9f;}</style></defs><title>icon-sucursales</title><g id="Capa_2" data-name="Capa 2"><g id="Capa_2-2" data-name="Capa 2"><ellipse class="cls-1" cx="355.63" cy="597.09" rx="59" ry="9.3"/><ellipse class="cls-1" cx="95" cy="378.78" rx="59" ry="9.3"/><ellipse class="cls-1" cx="539.62" cy="197.96" rx="59" ry="9.3"/><path class="cls-2" d="M355.63,175.1C284.69,175.1,227,232.82,227,303.77a127.78,127.78,0,0,0,8.26,45.46h-.45l3.9,8.21c.41.89.83,1.78,1.25,2.64l115.7,244,116-244.49,6.14-13H477A128.75,128.75,0,0,0,355.63,175.1ZM254.54,353.66a111.46,111.46,0,0,1-11.63-49.89,112.72,112.72,0,1,1,225.44,0,111.72,111.72,0,0,1-10.46,47.46l-.45,1L355.63,566.88,260,365.17h.25Z"/><path class="cls-2" d="M355.63,367.26a63.5,63.5,0,1,0-63.5-63.49A63.57,63.57,0,0,0,355.63,367.26Zm0-111a47.56,47.56,0,1,1-47.56,47.56A47.61,47.61,0,0,1,355.63,256.21Z"/><path class="cls-2" d="M95,69A95.06,95.06,0,0,0,5.7,196.5H5.25l3.39,7.16.92,1.94L95,385.78l85.62-180.53,5-10.65H185A95.09,95.09,0,0,0,95,69Zm74.15,129.41L95,354.79l-68.76-145h.21l-4.74-9.58A80.82,80.82,0,0,1,13.28,164a81.73,81.73,0,0,1,163.45,0A81,81,0,0,1,169.15,198.43Z"/><path class="cls-2" d="M95,116.73A47.3,47.3,0,1,0,142.3,164,47.34,47.34,0,0,0,95,116.73ZM129,164a34,34,0,1,1-34-34A34.06,34.06,0,0,1,129,164Z"/><path class="cls-2" d="M601.44,61.82a61.83,61.83,0,1,0-120.68,19h-.56l3.22,6.79c.19.43.4.86.59,1.25l55.61,117.27L595.33,88.64l4.28-9h-.77A61.47,61.47,0,0,0,601.44,61.82ZM539.62,179l-41.07-86.6h.18l-4.15-8.38h0a50.21,50.21,0,1,1,90.6-1.11Z"/><path class="cls-2" d="M539.62,30.24a31.58,31.58,0,1,0,31.57,31.58A31.61,31.61,0,0,0,539.62,30.24Zm0,51.55a20,20,0,1,1,20-20A20,20,0,0,1,539.62,81.79Z"/></g></g></svg>